<?xml version="1.0" encoding="UTF-8"?>
<svg xmlns="http://www.w3.org/2000/svg" version="1.1" viewBox="0 0 717.06 243.5474">
  <defs>
    <style>
      .cls-1 {
        fill: none;
        opacity: .4;
        stroke: #fff;
        stroke-linecap: round;
        stroke-linejoin: round;
        stroke-width: 9px;
      }

      .cls-1, .cls-2 {
        fill-rule: evenodd;
      }

      .cls-2 {
        fill: #fff;
      }
    </style>
  </defs>
  <!-- Generator: Adobe Illustrator 28.7.1, SVG Export Plug-In . SVG Version: 1.2.0 Build 142)  -->
  <g>
    <g id="_レイヤー_1" data-name="レイヤー_1">
      <g>
        <path class="cls-1" d="M4.5,239.0474c35.01-5.69,198.71-25.82,301.61-34.95,138.9-12.32,257.38-18.37,303.68-19.05"/>
        <path class="cls-1" d="M4.57,123.8574c34.52-4.76,190.33-20.41,348.05-33.89,109.33-9.34,299.38-24.05,359.94-24.93"/>
        <g>
          <path class="cls-2" d="M44.58,62.6474c.55-.04,1.09-.01,1.59.08.5.1,1.16-.02,1.96-.28.77-.26,1.59-.36,2.4-.36.82.01,1.82-.17,3-.53,1.11.09,1.82.1,2.17,0,.35-.06.83-.16,1.52-.28.83-.2,1.53-.48,2.11-.93.58-.41.77-1.03.57-1.81-.2-.79-.64-1.19-1.32-1.24-.67-.05-1.5.15-2.49.56-5.26,1.27-9.64,2.08-13.13,2.41s-6.62.54-9.34.58c.81-1.56,1.41-2.58,1.72-3.04.31-.42.66-.92,1.01-1.48l1.34-2.14c.55-.84,1.06-1.55,1.51-2.12.33-.63.61-1.08.84-1.44.2-.34.24-.75.15-1.28-.13-.52-.5-.89-1.12-1.18-.46-.17-.97-.13-1.6.06-.43.3-.76.56-.98.77-.23.25-.43.6-.54,1.08s-.43,1.1-.95,1.94c-.67,1.06-1.42,2.32-2.22,3.72s-1.87,3.15-3.14,5.18c-.9.24-1.64.56-2.28.95-.65.38-.99.88-1.01,1.48-.06.6-.06,1.41-.04,2.34-.37.76-.69,1.32-1,1.75-.31.42-.86,1.33-1.73,2.74-.35.83-.54,1.48-.58,1.95s-.05.94-.02,1.4c.03.47.16.89.4,1.28.23.38.54.76.98,1.12.41.37,1,.66,1.76.84.38.27.81.44,1.31.53.5.1.99.29,1.48.59,1.07.52,2.32.99,3.74,1.38,1.39.4,2.41.79,2.98,1.21.57.43,1.19.81,1.86,1.2.68.41,1.3,1.07,1.83,2.03.68.75.96,1.73.79,2.95-.17,1.21-.71,2.29-1.64,3.23-.96.94-1.91,1.72-2.89,2.39-1.21.66-2.41,1.19-3.6,1.58-1.18.39-2.38.55-3.6.51s-2.06-.14-2.48-.31c-.46-.16-1.04-.52-1.81-1.06-.47-.8-.82-1.51-1.1-2.16-.28-.61-.64-1.62-1.06-2.99-.25-.65-.41-1.17-.47-1.64-.06-.42-.24-.68-.58-.72-.33-.04-.77-.04-1.32,0-.58.08-1.05.35-1.43.85-.38.49-.52.94-.49,1.34.03.43.09.89.14,1.42.06.53.28,1.08.7,1.72.47.9.9,1.7,1.26,2.34.35.65.79,1.35,1.41,2.03.88.81,1.95,1.36,3.14,1.74,1.19.37,2.81.42,4.9.15,2.06-.25,3.91-.8,5.5-1.59,2.01-.89,3.77-1.96,5.31-3.28,1.5-1.28,2.52-2.9,3.03-4.84.51-1.95.36-3.71-.52-5.31-.6-.86-1.18-1.58-1.74-2.21-.59-.59-1.23-1.07-1.91-1.42-.67-.45-1.19-.74-1.55-.85-.4-.1-.88-.43-1.48-.96-.5-.46-.89-.63-1.17-.51s-.52.08-.67-.11-.66-.25-1.54-.25c-.38-.31-.87-.47-1.49-.42-.16-.43-.44-.74-.83-.98-.39-.2-.89-.33-1.49-.35-.65-.38-1.06-.69-1.25-.87-.22-.19-.37-.48-.4-.91-.03-.4.02-.93.18-1.58.15-.62.72-1.63,1.65-2.97.93-1.31,1.66-2.37,2.28-3.18,1.37-.17,2.68-.44,3.93-.8.66.21,1.21.2,1.63,0,.94.07,1.53-.01,1.78-.17.25-.15.76-.22,1.51-.21.6.05,1.54-.12,2.79-.52l1.84-.14Z"/>
          <path class="cls-2" d="M96.38,67.9974c.07.4-.11.85-.56,1.31-.12.58-.3,1.1-.54,1.58-.25.49-.53.95-.8,1.37-1.5,2.45-3.23,4.79-5.23,7.02-2.02,2.22-4.19,4.16-6.54,5.78-2.38,1.65-4.92,2.82-7.67,3.53-1.01.01-1.83-.03-2.39-.15-.6-.12-1.18-.45-1.78-.97-.66-.65-1.02-1.12-1.13-1.42-.11-.29-.27-.78-.42-1.43-.18-.66-.23-1.19-.16-1.66.04-.47.02-1.04-.12-1.73.18-.48.33-1,.37-1.53.37-.77.63-1.39.81-1.84.17-.41.1-.74-.19-.92.46-.64.76-1.33.92-2.07.17-.75.36-1.34.57-1.82.17-.45.41-.83.64-1.15s.37-.7.48-1.17c.62-.95,1.15-1.86,1.53-2.76.56-.58.88-1.14.92-1.64.49-.51.86-.87,1.15-1.13.29-.22.51-.7.67-1.42.34-.36.67-.65.99-.88.32-.19.52-.47.55-.81.03-.33.12-.61.3-.76.18-.14.41-.43.73-.92.31-.46.69-.92,1.21-1.43.85.67,1.58.95,2.13.77.56-.17,1.32-.7,2.28-1.64.75.01,1.3-.1,1.62-.26s.73-.19,1.23-.06c.49.13,1.06.22,1.74.27.71.34,1.56.78,2.49,1.31.91.53,1.74,1.13,2.43,1.75.55.63,1,1.29,1.35,2,.34.71.47,1.17.45,1.4-.06.28-.01.51.17.76.15.26.23.85.25,1.85-.36.2-.52.48-.45.87ZM74.32,62.7774c-.55.84-1.07,1.68-1.58,2.52-.63,1.06-1.53,2.8-2.76,5.23s-2.1,4.54-2.52,6.31c-.04.4-.18.81-.41,1.2-.24.38-.37.76-.34,1.09.07.4.01.77-.16,1.09-.2.31-.27.75-.18,1.35-.02.57-.14,1.11-.32,1.66-.22.55-.13,1.08.23,1.65.04.37.01.7-.05,1.01-.07.3.07.73.36,1.27.29.58.67,1.22,1.18,1.95.52.73,1.21,1.35,2.12,1.81,2.31.76,4.3.87,5.93.42l3.44-.97c.66-.18,1.16-.46,1.53-.75.36-.3.79-.6,1.29-.84s1.21-.62,2.07-1.23c.87-.6,1.54-1.22,2.07-1.86.62-.15,1.05-.45,1.3-.93.78-.4,1.41-1.05,1.83-1.88,1.52-1.19,2.8-2.59,3.89-4.21,1.14-1.42,2.26-2.98,3.39-4.67.24-.42.41-.8.58-1.18.17-.35.4-.67.72-.89.35-.46.55-.85.58-1.12.02-.27.15-.54.41-.83.22-.25.33-.66.31-1.23.19-.61.36-1.06.56-1.41.17-.35.27-.72.24-1.12s0-.8.1-1.21c.11-.41.05-.94-.12-1.66-.27-.85-.52-1.4-.77-1.65s-.47-.5-.58-.82c-.1-.33-.32-.61-.56-.93s-.74-.85-1.45-1.59c-.75-.75-1.56-1.19-2.43-1.32-.09-.49-.37-.84-.89-1.03-.53-.16-.89-.3-1.12-.42-.26-.11-.66-.18-1.2-.21-.67-.08-1.14-.18-1.4-.33-.26-.11-.89-.26-1.83-.39.55-.44.99-.88,1.3-1.34.31-.42.29-.92-.07-1.5-.36-.54-1.01-.89-1.94-1.08-.69.12-1.34.23-1.93.35-.58.11-1.26.43-2.05.92-.79.53-1.41,1.01-1.79,1.51s-.76.89-1.13,1.25c-.37.37-1.14,1.4-2.37,3.13-1.77,2.41-2.93,4.03-3.48,4.88Z"/>
          <path class="cls-2" d="M140.19,64.3074c8.38-8.93,14-14.68,16.8-17.23,2.8-2.56,4.67-4.1,5.53-4.7.87-.61,1.55-1.06,2.06-1.43.95-.01,1.63-.36,2.05-1,.4-.63.59-1.21.53-1.77-.05-.57-.32-.95-.82-1.11-.46-.06-.97-.09-1.51-.12-.52.11-.97.28-1.37.57-.44.31-.81.67-1.12,1.13-.83.23-1.4.54-1.67.93-.28.39-.58.81-.9,1.3-.49.14-.93.54-1.39,1.21-1.31,1.37-2.35,2.42-3.16,3.08-.8.7-1.25,1.14-1.37,1.35s-.34.42-.63.58c-.28.15-.77.69-1.39,1.61-.74.66-2.45,2.43-5.14,5.27-2.73,2.89-5.87,6.24-9.43,10.05-3.59,3.85-7.16,7.77-10.69,11.75-3.57,3.98-6.79,7.77-9.61,11.4-.68.78-1.11,1.39-1.21,1.79-.1.41-.09.98.13,1.63.21.65.45,1.07.74,1.21.29.18.69.29,1.15.38.47.1.86-.09,1.24-.52.63-.32,1.04-.65,1.2-.97.16-.31.46-.6.89-.87.4-.26.78-.83,1.13-1.69.34-.83.39-1.36.11-1.58-.29-.17-.54-.42-.75-.74,3.99-5.39,10.22-12.58,18.6-21.51ZM144.3,81.6374c-.58-.36-.84-.91-.7-1.65.1-.75.39-1.37.85-1.94,1.39-1.94,2.51-3.5,3.39-4.64.84-1.13,1.81-2.14,2.9-2.99,1.06-.85,1.96-1.42,2.73-1.75.78-.33,1.51-.55,2.27-.68.75-.12,1.32-.03,1.7.27.63.22,1.17.58,1.6,1.08.62,2.3.23,4.43-1.17,6.48-1.4,2.04-3.17,3.58-5.3,4.68s-4.28,1.63-6.41,1.63c-.69.05-1.28-.1-1.86-.49ZM156.84,63.1574c-.67-.08-1.22-.04-1.6.09-.39.13-.74.29-1.07.52-.65.52-1.32,1.17-1.99,1.89-.73.52-1.45.98-2.23,1.41-.79.46-1.38,1.04-1.78,1.77-.57.31-.92.84-1.06,1.59-.5.34-.9.63-1.2.92-.29.29-.57.72-.83,1.34-.66.65-1.27,1.33-1.8,2.04-.54.71-.96,1.31-1.31,1.81-.35.49-.67.98-.98,1.47-.31.5-.56.98-.67,1.46s-.11,1.21.01,2.2c-.02.98.39,1.71,1.17,2.19.24.35.52.59.85.7s.62.29.83.54c.19.25.58.39,1.12.48.53.09,1,.12,1.45.09.4,0,.76-.19,1.06-.58.63.22,1.55.21,2.75-.05,1.18-.22,2.54-.66,4.02-1.27.62-.19,1.06-.52,1.3-.97.24-.42.53-.64.94-.68.38.01.7-.22,1.01-.68.28-.42.77-1.02,1.52-1.82.75-.45,1.22-.83,1.39-1.17.17-.35.33-.63.42-.9.09-.28.35-.56.75-.86.37-.3.68-.82.92-1.58.23-.75.5-1.47.77-2.2.3-1.15.37-2.26.21-3.25-.23-.42-.36-.84-.39-1.31s-.23-.85-.54-1.16c-.67-.95-1.12-1.52-1.38-1.73-.25-.22-.86-.61-1.87-1.13-.51-.7-1.12-1.08-1.79-1.17ZM135.59,54.4974c-.61.68-1.2,1.23-1.74,1.64-.55.44-1.34.97-2.35,1.62-1.04.64-2.28,1.24-3.68,1.82-1.41.57-2.55.86-3.41.92-.88-.03-1.77-.29-2.64-.8-.87-.5-.9-1.73-.11-3.73.96-1.74,1.84-3.25,2.69-4.48.48-.84.83-1.27,1.1-1.29.24-.02.56-.14.99-.41.39-.23.87-.7,1.47-1.35.81-.76,1.81-1.34,3-1.77,1.19-.42,2.21-.47,3.11-.2.89.26,1.57.65,2.01,1.08.43.43.66.88.69,1.32.21.72.3,1.21.28,1.48-.06.27-.13.71-.22,1.32-.17,1.22-.59,2.18-1.19,2.83ZM140.44,50.1874c.04-.88-.06-1.6-.28-2.19-.24-.38-.44-.8-.54-1.26-.09-.46-.27-.78-.45-1.04-.21-.25-.47-.39-.8-.5s-.66-.25-.91-.5c-.68-.68-1.3-1.07-1.83-1.16-.53-.1-1.1-.25-1.69-.48.18-1.28-.26-2.01-1.4-2.16-1.15-.11-2.13.26-3.02,1.17-.25.52-.7.99-1.28,1.43-.58.45-1.17.96-1.76,1.47-.58.52-1.21,1.1-1.87,1.68-1.43,1.58-2.76,3.26-4.04,5.06s-2.16,3.74-2.68,5.85c-.53,2.12-.26,3.67.77,4.72.56.56,1.18.92,1.91,1.06.44.37.97.56,1.58.58.57.02,1.15-.02,1.73-.07,1.59-.35,3.2-.88,4.75-1.6,1.56-.68,3.05-1.5,4.52-2.42,1.44-.91,2.82-1.92,4.14-3.09,1.29-1.17,2.23-2.57,2.85-4.23.12-.67.22-1.45.3-2.32Z"/>
          <path class="cls-2" d="M214.75,52.9374c-.62.58-1.02,1.28-1.17,2.16-.01.5.13.89.37,1.18.25.28.57.49.93.66s.7.15,1.03-.11c.32-.23.61-.45.87-.67.25-.19.51-.41.74-.69.48-.47.87-.64,1.16-.53.3.12.65-.05,1.06-.48.4.14.89-.03,1.47-.48.9.1,1.49.02,1.74-.2.23-.22.67-.28,1.35-.2.68-.09,1.19-.06,1.51.12.32.17.78.04,1.36-.41.72.28,1.22.41,1.49.42.27.05.56.12.89.3.65.35,1.22.41,1.72.14.49-.24.86-.61,1.17-1.06.28-.43.35-.9.19-1.39s-.45-1-.85-1.54c-.65-.25-1.28-.47-1.94-.65-.67-.15-1.38-.16-2.2-.03-.83.13-1.65.22-2.39.22-1.1.08-2.23.27-3.44.53-1.25.26-2.11.46-2.63.6s-1.29.4-2.34.78c-.78.33-1.49.75-2.09,1.33ZM215.21,68.2374c-.44-.03-.8-.1-1.1-.15-.31-.04-.79.03-1.48.22-.7.19-1.2.56-1.56,1.19s-.39,1.3-.04,2.01c.31.71.79,1.04,1.47,1.02.56.52,1.15.78,1.76.77.87.5,1.5.68,1.89.55.38-.13.75-.09,1.11.09.32.2.78.3,1.32.33.54.02,1.14.14,1.74.37.6.08,1.17.14,1.7.23.54.1,1.52.15,3,.24l2.48.01c.81.01,1.83.03,3.01.04.63-.15,1.13-.46,1.57-.89.41-.43.62-.85.62-1.29,0-.4-.06-.79-.16-1.19-.11-.36-.33-.57-.62-.68-.3-.11-.63-.16-.97-.16-.38.03-.93.1-1.62.22-.67-.01-1.18-.01-1.56.05-.42.1-.89.11-1.43.08-.58-.02-1.53-.02-2.89.02-.8-.14-1.6-.24-2.38-.32-.8-.07-1.67-.27-2.59-.53-.96-.26-1.78-.6-2.49-1.05-.11-.73-.37-1.14-.78-1.18ZM190.89,63.2174c.3-.25.51-.7.56-1.31.45-.43.64-.75.67-1.02-.02-.23.13-.71.39-1.4.26-.22.38-.5.38-.83-.04-.33.06-.71.26-1.09.2-.35.44-.77.69-1.25.22-.26.35-.57.45-.94.1-.34.28-.79.53-1.31.27-.86.5-1.48.66-1.82.17-.35.32-.93.4-1.81.43-.3.72-.85.92-1.64.41-.73.72-1.22.91-1.5.2-.25.37-.73.51-1.48.21-.15.44-.4.74-.76.27-.35.46-.64.59-.91.12-.25.34-.76.68-1.56.5-.27.73-.56.68-.82-.04-.26.27-.76.9-1.41.67-.58,1.15-1.02,1.51-1.28.36-.23.62-.55.86-.97.21-.38.25-.89.13-1.48-.15-.59-.36-.91-.7-.95-.33-.04-.64-.05-.94-.03-.31.03-.65.09-1.07.15-.8.26-1.52.79-2.13,1.5-.6,1.02-1.07,1.76-1.38,2.18-.31.46-.95,1.61-1.86,3.42-.38.9-.93,2.11-1.6,3.63-.71,1.52-1.44,3.22-2.14,5.08-.71,1.86-1.56,4.23-2.52,7.04-.96,2.85-1.79,5.42-2.47,7.68-.67,2.29-1.29,5.07-1.81,8.36-.3,1.42-.49,2.41-.57,2.95-.11.54-.08.97.06,1.33.13.39.09.83-.16,1.35-.14.91-.16,1.51-.09,1.81.08.29.08.63.01,1.03.02.61.07,1.17.1,1.64.03.46.13.85.27,1.11.11.29.19.55.17.79.17.79.6,1.36,1.24,1.78.64.41,1.33.7,2.03.78.92-.07,1.75-.24,2.49-.53.73-.26,1.33-.5,1.82-.67.49-.14.94-.28,1.29-.4.35-.13.62-.49.8-1.03.19-.55.29-.96.28-1.26-.04-.3-.18-.62-.45-.97-.28-.35-.67-.52-1.22-.47-.54.04-1.2.19-1.96.38-.78.36-1.65.56-2.6.63-.63-.55-1.04-1.35-1.21-2.44-.18-1.09-.23-2.02-.1-2.77.13-.74.19-1.35.16-1.82-.03-.46.02-.97.07-1.54-.22-.58-.17-1.19.16-1.88-.01-.67.08-1.25.22-1.69.14-.45.17-.78.12-1.05-.05-.23.01-.46.24-.75.19-.28.26-.72.25-1.39.31-.42.5-1.04.54-1.84.18-.49.35-.9.44-1.21.1-.31.25-.82.47-1.51.37-.62.49-1.24.33-1.83Z"/>
          <path class="cls-2" d="M307.05,43.5874c.05-.54.31-1.23.79-2.07.48-.8.77-1.46.92-1.97.49-.94.82-1.67,1.08-2.23.21-.55.39-1.03.53-1.51.15-.48.47-1.47.98-3.01,1.26-.1,2.11-.13,2.52-.16.41,0,1.23-.1,2.47-.33.55-.04,1.06-.08,1.48-.14.4-.03.88-.07,1.43-.08.54-.01,1.05-.08,1.48-.25.42-.16.58-.51.56-1.04-.02-.54-.22-.95-.61-1.19-.38-.24-.99-.29-1.74-.24-.75.1-1.58.26-2.45.46-.76.16-1.31.3-1.73.43-.42.14-1.34.24-2.71.34.49-2.47.81-4.2,1-5.19-.07-1.13-.29-1.78-.61-1.99s-.92-.33-1.76-.36c-.41.03-.73.22-.97.57-.23.35-.37.73-.41,1.2l-.1,1.15c-.03.3-.07.84-.11,1.61-.06.77-.24,1.96-.51,3.51-2.67.34-4.7.63-6.08.87-1.37.24-2.41.42-3.14.61-.72.19-1.42.41-2.09.73-.64.32-1.09.82-1.29,1.5-.23.69.06,1.23.88,1.64.77.41,1.42.39,1.87-.11s.79-.86,1.08-1.09c.29-.22.78-.36,1.49-.41.77-.19,1.36-.41,1.79-.61.39-.19.81-.39,1.3-.6.9.2,1.51.19,1.87-.04.36-.2.84-.23,1.51-.15-1.13,3.56-2.15,5.95-3.01,7.21-.86,1.27-1.45,2.29-1.76,3.05-.3.76-.48,1.6-.55,2.48-3.02.77-5.03,1.25-6,1.53-1.01.28-2.33.61-3.99.97-1.34.57-2.25.98-2.76,1.28-.5.31-1.01.72-1.49,1.22-.64.72-.73,1.29-.26,1.79.46.5.91.87,1.3,1.04.39.2.76.24,1.17.14.38-.09.77-.29,1.17-.55l2.01-1.26c.55-.48,1.05-.78,1.5-.89.42-.09,1.18-.32,2.23-.67.66-.52,1.47-.88,2.46-1.02.64-.25,1.19-.36,1.7-.37.51,0,1.03-.14,1.56-.38s1.43-.45,2.74-.68l-11.05,11.07c-3.85,3.71-6.53,6.49-8.12,8.35-1.59,1.85-2.76,3.25-3.52,4.21-.78,1.13-.62,2.05.46,2.84,1.09.78,2.02.58,2.8-.55.46-1.37,1.04-2.65,1.83-3.92.79-1.23,2.04-2.79,3.84-4.74,1.76-1.9,3.78-4.06,6.03-6.44-.72,1.19-1.04,2.12-.96,2.78l-.22.98c-.44.41-.61.79-.5,1.11.1.36.06.8-.12,1.35-.19.55-.4,1.07-.65,1.55-.03.37-.11.95-.25,1.76s-.35,2.03-.66,3.59c-.31,1.6-.49,2.95-.56,4.09-.1,1.14.29,2.52,1.13,4.12.38.38.77.58,1.2.65.41,0,.84.1,1.27.23.4.11.84.04,1.31-.2.43-.3.8-.63,1.04-1.05.99-.47,1.79-.74,2.41-.85.59-.08,1.14-.25,1.68-.56.61.05,1.25,0,1.95-.19.69-.18,1.21-.26,1.51-.25.3.05.75-.02,1.34-.13.55-.11,1.34-.27,2.31-.51-.36.73-.39,1.43-.08,2.11.45.3,1.04.49,1.72.5.68.02,1.17-.16,1.47-.48.27-.35.6-1.05,1.03-2.08.87-.34,1.37-.98,1.48-1.89.08-.91-.25-1.38-1.06-1.39.06-.74.16-1.41.31-2.03.16-.61.44-1.5.82-2.7.11-.91.26-1.42.4-1.57.15-.14.25-.52.28-1.19.08-.54.19-1.05.36-1.46-.02-.47.11-.88.34-1.17.23-.28.31-.82.28-1.59.26-.65.34-1.23.32-1.73-.03-.5-.05-1-.04-1.53-.09-.93-.17-1.49-.25-1.72-.09-.23-.16-.49-.21-.79-.51-.69-.85-1.1-1.05-1.15s-.49-.2-.88-.37-1.14-.18-2.2-.06c-1.1.11-3.21.64-6.41,1.56-.84.26-1.61.56-2.25.87-.67.32-1.31.7-1.9,1.15-.58.48-.91,1.11-.97,1.85.21.65.62,1.09,1.17,1.34.52.26,1.1.19,1.68-.23.25-.45.62-.85,1.16-1.19s1.14-.65,1.78-.97c1.58-.66,2.77-1.05,3.53-1.17.75-.13,2.08-.16,3.91-.17.57.49.79,1.11.68,1.89-.13.78-.2,1.52-.26,2.22-.3,1.53-.72,3.2-1.22,5.01-.5,1.84-1.04,3.72-1.54,5.67-.22.51-.47,1-.74,1.46-1.19.35-2.47.72-3.93,1.03-1.45.35-3.13.61-5.02.79,1.37-1.31,2.21-2.01,2.53-2.1.31-.09.72-.49,1.19-1.19.54.02.97-.21,1.28-.67.31-.43.65-.85,1.02-1.25,1.38-.97,2.22-1.67,2.53-2.1.3-.39.6-.71.9-1,.29-.26.47-.81.51-1.61.09-.68-.03-1.2-.37-1.58-.37-.37-.83-.64-1.38-.86-.56-.19-1.31-.2-2.24-.06l-1.31.33c-.9.14-1.98.45-3.31,1.02-.94.28-1.79.61-2.5.96-.71.36-1.32.77-1.8,1.24-.34.83-.4,1.51-.17,1.99.19.49.5.8.93.93.39.17.74.04,1.05-.31.3-.36.78-.77,1.5-1.29.56-.24,1.02-.44,1.38-.67.36-.2.85-.37,1.47-.52l1.76-.73c.65-.09,1.23-.1,1.73,0-.69.85-1.21,1.43-1.58,1.72-.36.3-.95.81-1.83,1.58s-2.01,1.62-3.34,2.53c-1.37.94-2.57,1.8-3.58,2.58-.82.36-1.34.9-1.6,1.63l-.66,1.25c-.45-.23-.73-.55-.86-1-.16-.43-.23-.89-.21-1.42.49-4.05,1.12-7.41,1.9-10.11.77-2.67,1.35-4.55,1.78-5.58l.85-1.67c.26-.56.37-1.03.27-1.46-.1-.39-.34-.74-.76-1.04,2.67-2.65,5.74-5.52,9.2-8.6,1.94-.08,3.14-.27,3.57-.57.74.07,1.47-.08,2.18-.47.69-.05,1.26,0,1.72.1.47.13,1.33,0,2.58-.43,1.69-.26,3.68-.52,6.01-.76,1,.09,1.72,0,2.15-.23.43-.24.7-.56.84-1,.13-.41.04-.94-.27-1.59-.32-.64-1.25-.8-2.81-.48-1.11.28-2.25.54-3.42.73-1.2.19-4.48.78-9.85,1.72,3.23-2.75,5.1-4.37,5.62-4.87.51-.48,1.05-.85,1.62-1.1,1.1-.92,1.86-1.51,2.29-1.78.43-.26.66-.52.75-.79.09-.24.27-.42.59-.58s.58-.45.79-.86c1-.55,1.61-.99,1.85-1.38s.53-.61.94-.71c.38-.09.84-.3,1.41-.64.38-.4.65-.75.81-1.1.17-.35.13-.64-.09-.93-.21-.28-.42-.53-.6-.79-.22-.21-.52-.33-.89-.3-.41.04-.76.13-1.05.28-.82.54-1.34,1.04-1.59,1.56-1.85,1.72-3.88,3.64-6.17,5.76-2.29,2.14-5.76,5.05-10.49,8.69-1.05.35-1.85.61-2.37.72.37-.77.6-1.45.65-1.99ZM313.66,51.7674c-.33.69-.38,1.16-.13,1.45.25.28.5.49.76.67.25.18.9.47,1.99.85,1.69.81,2.86,1.45,3.5,1.87.61.42,1.26,1.04,1.98,1.82.16.46.44.7.92.7.47.03.86-.17,1.2-.53.33-.36.58-.84.77-1.46.19-.58.12-1.01-.16-1.26-.28-.24-.6-.48-.92-.73-.77-.14-1.26-.34-1.47-.65-.24-.32-.52-.63-.86-.97-.38-.31-.7-.52-1.04-.56s-.56-.19-.68-.38c-.47-.43-.98-.86-1.55-1.25-.58-.36-1.24-.58-1.95-.59-1.22.03-2.03.36-2.36,1.02ZM278.89,75.0574c-.73-.55-1.23-1.05-1.53-1.49-.3-.45-.82-1.07-1.57-1.82-.24-.72-.43-1.24-.54-1.56-.14-.32-.57-.46-1.32-.4-.69.12-1.15.39-1.37.87-.21.49-.32,1-.31,1.6-.01.6.15,1.02.51,1.23.36.47.67.81.96,1.03.29.21.73.61,1.32,1.17.56.59,1.44,1.42,2.63,2.5,1.19,1.11,2.47,2.02,3.83,2.75.31.34.67.48,1.12.41.44-.06.89-.17,1.31-.3s.73-.52.95-1.17c.23-.62.17-1.12-.18-1.43-.35-.3-.66-.55-.99-.66l-2.05-.64c-1.11-.85-2.03-1.55-2.77-2.09ZM259.69,80.5674c.77-.59,1.68-1.4,2.76-2.41,1.07-1.02,1.8-1.65,2.2-1.88.35-.23.91-.74,1.66-1.56.99-.51,1.61-.96,1.78-1.38.17-.38.3-.72.33-1.06.03-.33-.25-.65-.79-1.01-.55-.32-1.05-.48-1.52-.45-.48.04-1.02.38-1.62,1.03-.89.87-1.52,1.52-1.86,1.88-.34.39-.93.97-1.81,1.74-.89.77-1.63,1.53-2.24,2.25-.79.52-1.38,1.04-1.83,1.54s-.89.94-1.33,1.31c-.44.36-.95.8-1.47,1.28-1.31,1-2.03,1.89-2.13,2.63-.1.75.03,1.27.34,1.58.31.25.75.35,1.29.3.55-.07,1.08-.28,1.51-.58.44-.37.89-.84,1.42-1.48.59-.58,1.13-1.22,1.55-1.86.57-.27,1.17-.89,1.76-1.87ZM259.62,70.9474c.41-.03.76-.16,1.05-.41.29-.22.62-.48.91-.74.29-.22.43-.57.43-1-.03-.43-.1-.76-.29-.98-.18-.19-.47-.4-.86-.6-.39-.18-.74-.42-1.03-.66-.28-.25-.56-.56-.83-.91.09-1.07.14-2.01.17-2.78.46-2.48.81-4.24,1.08-5.33.16-.72.6-2.19,1.33-4.38.74-2.2,1.3-3.98,1.72-5.28.18-.95.58-2.02,1.17-3.27.58-1.21,1.26-2.87,1.99-4.93.43-1.03.77-1.86.99-2.48.17-.35.41-.77.65-1.22.24-.42.43-1,.6-1.75.35-.56.63-1.02.84-1.43.2-.39.3-.8.31-1.26-.03-.47-.3-.88-.81-1.25-.54-.36-1.04-.45-1.53-.28s-.89.5-1.2.93c-.31.46-.45.87-.49,1.27-.38.93-.68,1.56-.87,1.84-.23.29-.33.69-.38,1.2-.04.5-.22.99-.5,1.44-.12.68-.32,1.36-.54,1.98-.23.65-.46,1.34-.65,2.02-.23,1.02-.52,2.08-.89,3.18-.24.42-.45.87-.56,1.31-.11.48-.25.89-.34,1.23-.34.73-.56,1.35-.67,1.82-.11.48-.19.99-.27,1.49-.23.36-.37.73-.37,1.14,0,.4-.1.77-.3,1.09-.2.38-.3.79-.27,1.19.03.43-.07.84-.24,1.19-.35.49-.47,1.07-.36,1.73-.02.33-.15.58-.3.76-.15.21-.2.41-.16.64-.02.67-.15,1.35-.42,2.07-.22,1.43-.36,2.27-.42,2.51-.09.27-.16.65-.24,1.15-.07.51-.14,1.25-.22,2.19-.06,1.11.03,2.01.24,2.69.21.69.58,1.5,1.15,2.39.51.36.97.52,1.38.49ZM264.52,65.7274c-.51.37-.82.8-.89,1.21-.1.44-.06.74.06.86.13.12.44.47.86,1.04.66.21,1.27.2,1.77-.07s1.25-.73,2.22-1.34c.97-.21,1.63-.43,1.99-.66.36-.19.63-.24.83-.19s.56-.15,1.07-.59c.4.07.81.04,1.23-.09s.88-.34,1.41-.64c.76-.2,1.59-.29,2.47-.26-.65.82-1.02,1.55-1.08,2.19-.09.67.17,1.19.81,1.57.65.32,1.24.24,1.82-.2.58-.45.9-.97,1.03-1.65.39-.67.65-1.32.71-1.93.05-.6.19-1.08.47-1.47.23-.35.3-.76.14-1.22.03-.4.16-.71.42-.93.22-.22.27-.46.1-.78.34-.42.52-.87.53-1.37.1-.45.29-1.06.53-1.85.28-.52.56-.98.87-1.37.3-.39.51-.81.61-1.25.11-.44-.09-.86-.6-1.22.29-.56.46-1.04.5-1.44.31-.43.55-1.28.66-2.56.26-.62.36-1.33.3-2.2.37-.36.51-.87.5-1.47.03-.41.14-.82.32-1.3.17-.44.25-.99.17-1.58.07-.41.21-.92.41-1.57.19-.62.33-1.13.37-1.53.03-.37.12-.65.31-.83.15-.14.22-.55.17-1.21.18-.82.23-1.49.21-2.03-.02-.53-.08-1.03-.17-1.45-.1-.43-.27-.88-.53-1.37-.44-.4-.79-.7-1.08-.88-.28-.18-.62-.26-.99-.29-.4-.04-.74-.05-1.07-.09-.34-.01-1.61.16-3.88.53-1.56.32-3.06.77-4.53,1.32l-2.42.99c-.5.2-.96.41-1.31.63-.4.23-.7.56-.9.91-.23.38-.28.89-.2,1.52.08.66.42,1.07,1.04,1.25.6.19,1.17.25,1.65.14.49-.1.85-.36,1.06-.85.21-.45.48-.8.84-1.03.84-.33,1.59-.72,2.31-1.18.83-.2,1.38-.27,1.68-.26.3.04.58-.01.86-.17.29-.15,1.35-.3,3.2-.44.53.12.88.33,1.09.65s.34.77.39,1.41c-.38,2.43-.64,4.15-.75,5.1-.16.98-.42,2.4-.85,4.24-.44,1.87-.94,4.12-1.57,6.71-.59-.26-1.19-.35-1.81-.27-.71.02-1.4.11-2.06.26-.67-.01-1.4.11-2.09.3-1.01.24-2.11.49-3.35.72l7.04-5.35c.38-.37.74-.69,1.18-.99.4-.3.73-.66.98-1.15.65-.45.8-1.06.5-1.91-.33-.81-.63-1.32-.92-1.5s-.79-.27-1.53-.28c-.75-.01-1.29.03-1.67.13-.42.09-.76.12-1.03.07-1,.21-1.69.37-2.11.47l-2.49.59c-.79.13-1.45.28-2.01.52-.57.24-1.02.41-1.37.47-.52.11-1.11.32-1.75.67-.68.35-1.16.79-1.44,1.32-.28.52-.47,1.07-.59,1.68s.04,1.1.48,1.47c.45.36.9.59,1.44.65.4.07.78-.02,1.21-.29.4-.23.69-.49.85-.73.15-.22.21-.55.18-.95s.3-.73,1.08-1.05c.91-.41,1.72-.7,2.34-.85.63-.15,1.35-.31,2.25-.51s1.68-.23,2.38-.08c-.81.8-2.16,1.87-4.01,3.21l-8.3,6.15c-.58.38-.92.78-1.05,1.12-.14.38-.23.72-.3,1.06-.09.34.11.76.61,1.26.49.53.95.73,1.44.59.45-.14,1.05-.38,1.76-.77.64-.32,1.65-.7,3.04-1.07.32-.09.63-.18.97-.21s.77-.26,1.35-.7c.55-.05,1.17-.23,1.95-.62.52.33,1,.26,1.38-.24.95-.01,1.77,0,2.37.05.41-.03.72-.02.99-.01.26.05.7.08,1.37.13-.48,1.24-.83,2.17-1.01,2.72-.19.55-.53,1.31-1.01,2.25-.48-.03-1.02.01-1.57.12-.56.11-1.11.25-1.64.42-.52.18-1.07.32-1.63.43-.37-.04-.85.07-1.41.24-.56.21-1.26.43-2.02.63-.8.19-1.95.58-3.46,1.16-1.26.43-2.18.84-2.68,1.21Z"/>
          <path class="cls-2" d="M343.81,56.9774c.07.36.13.75.17,1.15.03.43.22.89.52,1.37.3.47.74.87,1.32,1.16.55.33,1.04.53,1.44.6s.84.1,1.39.06c.54-.01,1.07-.19,1.64-.56.63.15,1.32.06,2.06-.3.73-.19,1.31-.26,1.75-.23.41.04.78.01,1.06-.08s.84-.27,1.64-.49c.49-.24.89-.57,1.2-1,.31-.42.52-.84.66-1.32.14-.45.07-.74-.22-.92-.3-.14-.55-.32-.81-.5-.25-.19-.83-.14-1.73.06-1,.18-1.84.41-2.47.69-.67.29-1.44.51-2.3.71-.87.2-1.56.32-2.1.36-.55.08-.98-.02-1.37-.29-.39-.17-.63-.52-.72-1.08-.08-.53-.13-1.13-.18-1.79-.04-.63.03-1.44.25-2.43.22-.95.48-2.04.82-3.2.31-1.16.67-2.26,1.03-3.26.43-1.03.78-1.96,1.13-2.86.35-.89.77-1.83,1.27-2.8.26-.29.49-.61.69-.99.17-.38.37-.7.53-.94.15-.25.52-.95,1.03-2.09.28-.52.74-1.12,1.37-1.77.37-.67.71-1.09,1.03-1.32.33-.19.62-.48.86-.83.23-.36.33-.7.29-.96-.05-.27-.16-.59-.37-.91-.24-.31-.5-.5-.83-.54-.34-.04-.68-.01-1.03.08-.34.1-.8.26-1.4.51-.63.28-1.03.58-1.19.89-.17.32-.42.87-.73,1.7-.38.53-.64,1.08-.76,1.69-.41.5-.66.96-.69,1.36-.07.41-.27.76-.6,1.01-.21.49-.42.87-.61,1.15-.19.29-.23.66-.13,1.08-.39.57-.7,1.09-.95,1.58-.02.57-.22,1.02-.59,1.32-.26,1.02-.6,2.18-.98,3.48-.18.48-.35.9-.52,1.31-.18.41-.31.83-.38,1.23-.48,1.24-.76,2.1-.8,2.54-.08.47-.09.97-.04,1.57-.21.48-.36,1-.47,1.51s-.16,1.01-.1,1.54c-.14.81-.16,1.42-.08,1.75ZM374.93,35.3674c-.42.13-1.29.33-2.53.63-1.28.3-2.59.57-3.94.8-2.59.54-4.11.92-4.54,1.19-.47.3-.89.8-1.22,1.53-.34.73-.26,1.39.23,2.02.48.63.98.79,1.44.56.46-.24,1.38-.61,2.74-1.12.64-.35,1.48-.61,2.58-.83,1.11-.22,1.83-.34,2.18-.4.34-.03.79-.19,1.36-.5.37-.3.68-.42.99-.41.3.01,1.03-.18,2.22-.54,1.1-.22,1.89-.35,2.38-.45.48-.11,1.03-.18,1.64-.23-.61,3.92-1.65,8.01-3.11,12.27-1.46,4.29-3.29,8.61-5.5,12.92-.65.85-1.05,1.52-1.15,1.93-.11.44-.35.86-.66,1.28-.39.64-.68,1.26-.94,1.88-.88.74-1.38,1.41-1.47,2.05-.51.38-.89.84-1.18,1.46-.33.63-.71,1.09-1.06,1.32-.37.26-.74.69-1.1,1.29-.36.63-.75,1.19-1.2,1.7-.39.63-.78,1.16-1.2,1.66-.41.43-.56,1.04-.46,1.8.11.7.34,1.11.74,1.25.36.07.77.11,1.17.14.41-.03.87-.26,1.39-.7.52-.51.94-1.11,1.27-1.81.87-1.4,1.62-2.53,2.21-3.47.38-.83.7-1.43.94-1.85.24-.38.51-.8.89-1.3.38-.46.56-.91.56-1.31.74-.76,1.19-1.6,1.27-2.51.52-.51.84-1.03.99-1.58.6-1.05,1.2-2.13,1.81-3.24-.01-.74.33-1.47.97-2.18.11-.55.31-.93.57-1.18.23-.26.4-.7.46-1.38.59-.51.83-.9.72-1.15-.12-.26.02-.67.41-1.27.36-.56.85-1.91,1.51-4.03.2-.82.42-1.33.64-1.55.19-.22.25-.52.18-.92.45-.47.67-1.08.71-1.86l.5-2.27c.49-.48.67-.99.51-1.55.45-.47.62-.85.58-1.14-.05-.3.1-.81.44-1.57.14-.82.29-1.43.4-1.87.1-.41.22-1.02.29-1.8,1.31-.16,2.48-.35,3.47-.5.6.12,1.01.13,1.26.01.21-.12.55-.15.95-.04.4.1.88,0,1.51-.25.6-.25,1.22-.3,1.89-.21,1,.19,1.75.16,2.27-.01.52-.18.92-.44,1.15-.72.23-.29.3-.8.23-1.49-.07-.7-.3-1.18-.68-1.49-.42-.3-1.15-.41-2.21-.33-2.34.35-3.79.59-4.34.77-.56.17-1.18.32-1.87.44s-1.62.26-2.72.38c.1-1.15.18-1.99.29-2.5.08-.5.19-.95.32-1.29.13-.35.25-.92.32-1.7.15-.61.26-1.12.3-1.52.03-.41.13-1.15.34-2.3.27-.83.2-1.56-.18-2.23-.42-.67-.9-1.03-1.5-1.09-.38.03-.83.17-1.33.41-.64.41-1.11,1.05-1.35,1.94-.28.89-.29,1.72-.05,2.44-.16,1.08-.25,2.09-.26,3.03,0,1.14-.01,2.04-.08,2.78-.18.61-.33,1.49-.46,2.61-.95.34-1.6.49-1.95.51-.37.03-.96.18-1.79.38-1.02.04-1.74.13-2.16.26Z"/>
          <path class="cls-2" d="M421.87,64.1474c-.06-.83.2-1.48.78-1.99.59-.52,1.24-1,1.9-1.52.76-.59,1.27-.9,1.46-.85.2.05.6-.21,1.19-.79.49-.1,1.01-.24,1.6-.39s1.07-.22,1.44-.18c.33.04.64-.01.89-.17.22-.15.53-.2.9-.17.34.05.75-.05,1.25-.29.83-.2,1.48-.28,1.98-.22.51.06.95.03,1.3-.07.34-.09.92-.1,1.69.04-.26.59-.53,1.04-.77,1.4-.27.35-.65.92-1.16,1.69-1.84,1.64-3.79,3.03-5.83,4.16-2.03,1.15-4.4,1.5-7.15,1.11-.92-.33-1.41-.89-1.47-1.76ZM448.59,57.5874c.2.05.56.16,1.06.32.49.2.97.16,1.4-.14.43-.26.83-.63,1.25-1.06.37-.43.38-.9-.05-1.47-.42-.54-.97-.89-1.67-1.04s-1.41-.19-2.15-.2c-1.44.21-2.47.29-3.04.23-.6-.05-1.52-.05-2.74-.02.13-.82.22-1.43.26-1.9.04-.43-.05-.93-.2-1.52-.19-.55-.51-1.23-.98-2.06-.44-.37-.65-.69-.66-.95-.01-.27-.44-.77-1.29-1.47-.24-.39-.51-.77-.88-1.21-.37-.4-.72-.74-1.03-.99-.32-.24-.57-.49-.82-.74s-.74-.44-1.54-.58c-.27-.45-.62-.72-1.02-.83-.43-.1-.82-.23-1.21-.44-.39-.2-.99-.32-1.8-.36,2.8-1.85,4.68-3.1,5.65-3.78.97-.64,1.77-1.2,2.35-1.65.58-.44,2.02-1.39,4.26-2.9,1.04-.71,1.74-1.33,2.09-1.83.35-.49.64-1.15.91-1.91.24-.75.33-1.36.26-1.75-.07-.4-.16-.96-.29-1.72-.27-.78-.66-1.35-1.21-1.74-.58-.36-1.06-.66-1.45-.83-.43-.17-.92-.36-1.44-.62-.55-.26-1.29-.34-2.25-.23-.52-.3-1.01-.46-1.45-.42-.45.03-.93.07-1.47.04-.55-.29-1.08-.45-1.58-.48-1.32.3-2.25.44-2.85.39-.61-.06-1.5.08-2.62.43-1.11.35-2.06.73-2.78,1.18-.64.39-1.27.9-1.86,1.48-.59.62-.95,1.21-1.07,1.82s0,1.07.42,1.31c.39.23.78.41,1.18.47.37.08.79-.09,1.27-.46.43-.37.84-.77,1.15-1.19.31-.43.96-.84,1.91-1.25,1.36-.51,2.81-.72,4.29-.63,1.49.09,2.56.17,3.17.22.61.06,1.17.18,1.7.38.52.22,1.08.38,1.61.54.86.3,1.4.63,1.57,1.02.17.38.09.96-.24,1.65-.25.56-.6,1.02-.97,1.38-.41.37-.89.84-1.44,1.38-.56.54-1.18.99-1.82,1.38-.68.38-1.12.75-1.28,1.03-.64.32-1.24.66-1.82,1.11-.59.45-1.07.88-1.5,1.25-.64.32-1.13.45-1.43.44-.31.03-.74.23-1.25.67-.7.25-1.41.57-2.05.96-.68.38-1.18.66-1.53.82-.36.19-.68.45-1.05.78s-.69.85-.99,1.58c-.3.72-.35,1.26-.11,1.64.24.39.58.73,1.1.99s1.02.39,1.56.38c.54.03,1.12.02,1.73.04.8.14,1.57.31,2.33.45.73.18,1.52.45,2.34.79.78.38,1.46.79,2,1.25.5.47.95,1.1,1.32,1.94.33.84.53,1.73.58,2.7.05.96.04,1.86-.04,2.74-2.03.36-4.09.65-6.18.84-2.12.23-4.23.66-6.32,1.29-2.12.63-3.85,1.43-5.22,2.37-1.08.68-1.82,1.38-2.18,2-.36.67-.65,1.26-.84,1.81-.18.55-.25,1.39-.18,2.45.23,1.32.75,2.32,1.57,3.05.81.74,1.7,1.14,2.65,1.14.63-.25,1.07-.32,1.41-.24.33.07.73.14,1.2.21.47.06.91.03,1.3-.1.38-.13.74-.33,1.06-.55.33-.23.67-.29,1.08-.25.37.04.82-.13,1.4-.55.9-.27,1.86-.74,2.87-1.42.91-.3,1.66-.69,2.17-1.13s.92-.81,1.15-1.13.48-.5.8-.59c.31-.1.61-.45.94-1.15.59-.48,1.21-.99,1.87-1.51.65-.52,1.13-.96,1.39-1.24.23-.29.63-.99,1.13-2.03,1.43-.04,2.38-.05,2.89-.09.51,0,1.4-.07,2.63-.16.84.1,1.37.16,1.61.17Z"/>
          <path class="cls-2" d="M493.85,19.5274c.37-.33.51-.81.43-1.4-.12-.59-.39-1.01-.84-1.27-.45-.27-.96-.3-1.52-.12-.56.21-1.07.62-1.53,1.25-1.26,1.57-2.59,3.64-3.97,6.26-1.72,3.34-2.87,6.03-3.46,8.08-.44,1.54-.65,2.86-.68,3.96-.03,1.11.29,2.05,1,2.83.36.58.94.9,1.79.97.8.07,1.4-.17,1.76-.74.35-.56.46-1,.28-1.35-.17-.36-.42-.61-.71-.72-.3-.11-.66-.65-1.11-1.68-.12-.63.02-1.38.4-2.21.31-.52.47-1.14.46-1.84.25-.52.44-1.17.64-1.92.65-1.15,1.14-2.16,1.42-2.98.31-.49.62-.92.85-1.24.23-.31.37-.73.48-1.2.31-.06.57-.28.74-.69.17-.38.4-.74.64-1.09.23-.35.84-1.07,1.82-2.21.35-.13.71-.36,1.11-.69ZM532.71,19.9874c.69.29,1.34.57,1.96.89.57.36,1.01.76,1.31,1.27.01.67-.1,1.11-.32,1.33-.26.22-.74.65-1.43,1.24-.73.59-1.35,1.08-1.89,1.45-.54.38-1.05.72-1.52,1.05-.47.34-1.09.79-1.84,1.31-.76.53-1.52,1.06-2.24,1.55-.61.38-1.11.65-1.53.82-.42.16-.82.49-1.14.95-.31.46-.39,1.03-.18,1.75.2.72.58,1.06,1.13,1.05.54.03,1.02-.11,1.38-.37.36-.23.91-.67,1.68-1.3,3.04-2.24,5.04-3.73,6.02-4.47s1.71-1.34,2.23-1.81l1.92-1.78c.61-.85.95-1.65.95-2.38,0-.74-.27-1.52-.81-2.35-.57-.82-1.37-1.43-2.35-1.89-1.01-.46-1.99-.82-2.99-1.11-1.52-.35-3.74-.58-6.69-.65-2.94-.08-5.59.03-7.92.27.9-.67,1.74-1.3,2.54-1.97.81-.63,1.75-1.37,2.91-2.22,1.16-.86,2.43-1.79,3.88-2.81,1.44-1.01,2.93-2.09,4.52-3.22,1.29-.83,1.95-1.42,2.05-1.76s.04-.81-.18-1.42c-.22-.62-.63-.96-1.27-1.01-.78.06-1.34.24-1.7.5-.58.38-1.25,1.03-2.01,1.96-.6.24-1.03.51-1.25.8-.27.28-.61.68-1.06,1.18-.63.25-1.1.59-1.41,1.01s-.71.76-1.2,1c-.5.23-.86.53-1.1.85-.23.32-.85.83-1.86,1.54-.6.32-1.07.62-1.36.84-.3.26-.59.55-.82.84-.26.28-.59.47-.93.57-.39.09-.82.46-1.32,1.03-.59.25-1.13.56-1.63.87-.5.3-.9.63-1.17.99-.27.35-.48.8-.6,1.35-2.68.47-5.32,1.11-7.89,1.91-2.59.83-4.94,1.71-7.08,2.61-.9.2-1.64.53-2.3,1.01-1.01.38-1.97.86-2.87,1.39-.92.54-1.4,1.28-1.44,2.18-.08.91.18,1.43.78,1.52.57.12,1.47-.15,2.68-.81.53-.54,1.11-1.02,1.79-1.44.65-.42,1.75-1.04,3.25-1.86,1.5-.81,2.8-1.38,3.94-1.67.72.01,1.2-.12,1.5-.38.25-.22.68-.42,1.27-.6.53.09,1.06-.05,1.56-.42.78-.39,1.66-.7,2.62-.84s1.86-.37,2.77-.71c1.37-.14,2.43-.19,3.11-.17.67.01,1.22-.03,1.63-.13.39-.09,1.01-.27,1.85-.51.38.31.85.34,1.41.13.6.15,1.41.16,2.44-.02,1.09-.02,2.81.05,5.17.27,1.33.27,2.36.52,3.05.8ZM500.3,18.2974c.6.09,1.23.24,1.93.42,1.01.09,1.7-.03,2.14-.4.4-.36.68-.85.81-1.49.12-.62-.05-1.07-.5-1.34-.45-.26-1.09-.35-1.91-.25-.91-.03-1.51-.15-1.79-.4-.36-.61-.68-1.18-.9-1.73-.03-.44-.13-.9-.29-1.39-.16-.48-.28-1.08-.28-1.81-.03-1.2.07-1.95.27-2.3.16-.34.23-.71.2-1.18-.03-.43-.27-.75-.7-.92-.46-.16-.86-.2-1.27-.17-.41.07-.87.24-1.33.51-.47.3-.71.72-.76,1.26-.03,1.87.12,3.67.38,5.38.25,1.76.89,3.38,1.95,4.83.77.55,1.45.89,2.05.98ZM511.55,7.2074c-.08-.26-.19-.58-.29-.98-.1-.39-.46-.56-1.07-.55-.62.05-1.1.12-1.42.28-.32.15-.65.48-1,1.01-.32.52-.51,1.21-.58,2.01-.11.85-.05,1.68.18,2.53.17.46.3.85.47,1.2.14.39.47.83.97,1.36s.99,1.06,1.42,1.57c.52.29,1.02.39,1.5.32.48-.08.97-.28,1.44-.62.44-.33.65-.75.55-1.24-.09-.5-.19-.89-.33-1.21-.18-.32-.37-.48-.6-.53-.27-.01-.49-.16-.7-.48-.77-.54-1.2-1.01-1.24-1.41-.03-.39-.05-.89-.03-1.56.55-.88.8-1.44.73-1.7ZM514.51,45.8174c-.39.96-.81,1.9-1.23,2.77-.71.39-1.24.63-1.63.79-.42.17-.86.23-1.41.24-.54.04-1.3.2-2.28.51-.89.07-1.61.19-2.17.33-.59.15-1.46.42-2.64.81-1.46.41-2.89.82-4.25,1.23-.73.25-1.4.47-1.96.65-.65-1.02-.84-2.31-.61-3.86.24-1.53.53-2.92.84-4.15.31-1.22.75-2.73,1.31-4.51.49.57.97.96,1.35,1.2.39.24.87.17,1.48-.18.57-.34,1.09-.88,1.49-1.58.97-.14,1.67-.4,2.1-.7.4-.3.75-.39,1.08-.28.32.14.85-.03,1.63-.5,1.06-.41,2.2-.7,3.5-.8-.62.82-1.15,1.53-1.64,2.1-.53.57-1.16,1.19-1.93,1.85-1.46.38-2.42.59-2.91.66-.48.07-.93.17-1.34.27-1.43.48-2.29.91-2.55,1.26-.55.05-.99.41-1.36,1.11-.36.7-.43,1.44-.15,2.15.27.75.89,1.07,1.88.99.58-.48,1.23-.89,1.94-1.25.67-.32,1.2-.52,1.58-.59.34-.02.79-.09,1.27-.16s1.07-.28,1.71-.6c1.47-.51,3.77-.46,6.9.24ZM513.5,39.1074c.38-.43.8-.99,1.23-1.63.51-.77.67-1.49.53-2.14-.19-.63-.42-1.04-.74-1.22-.33-.17-.97-.26-1.92-.25-.68.02-1.53.12-2.53.29-1,.18-2.21.47-3.64.85-1.45.38-2.39.65-2.81.75-.45.1-1.08.32-1.91.58-.84.3-1.69.67-2.47,1.06,1.03-2.49,1.92-4.49,2.67-6.09.72-1.26,1.26-2,1.62-2.29.37-.27.6-.58.66-.96.07-.34,0-.77-.23-1.22s-.58-.69-1.12-.71c-.55.01-1.06.08-1.59.25-.52.18-.86.57-1.02,1.22-.17.38-.44.73-.73,1.06-.3.32-.44.7-.38,1.13-1.43,3.65-2.7,7.29-3.84,10.99-1.14,3.69-1.84,7.12-2.11,10.22-.03,1.07.07,1.83.24,2.29.16.45.39.87.77,1.21.34.37.73.58,1.13.68s.84.07,1.39-.04c.56-.11,1.1-.52,1.7-1.23.98-.28,2.37-.72,4.16-1.36-.64.72-1.09,1.15-1.31,1.34-.25.22-.69.62-1.29,1.2-.55.51-1.07,1.05-1.56,1.62-1.09.82-1.87,1.58-2.34,2.29-.68.79-1.34,1.37-1.92,1.75-.61.38-1.05.75-1.31,1.1-1.09.75-1.89,1.38-2.34,1.85-.48.51-1.69,1.54-3.66,3.12-1.46.82-2.36,1.39-2.7,1.75-.33.29-.68.82-1.02,1.61-.34.73-.28,1.23.21,1.53.48.23.98.35,1.46.35.47-.04,1.19-.42,2.13-1.16,2.38-2.36,4.52-4.33,6.39-5.91s4.12-3.69,6.79-6.3c2.63-2.61,4.73-4.44,6.32-5.53-.25,1.99-.32,3.23-.3,3.76.02.54.08,1.07.19,1.66.35,3.38,1.25,5.95,2.69,7.68,1.41,1.73,3.45,2.78,6.13,3.14,2.24.46,4.61.11,7.08-1.01,2.48-1.19,4.25-2.8,5.34-4.82.55-.48.9-1.01,1.05-1.59.4-.66.72-1.19.95-1.54.2-.35.48-.84.85-1.54.39-.63.73-1.35.97-2.24.48-.74.76-1.3.93-1.68s.2-.75.14-1.14c-.07-.37-.38-.74-.89-1.14-.54-.36-1.12-.42-1.72-.14-.6.32-1.02.85-1.26,1.61-.27.78-.63,1.85-1.15,3.16-.42.9-.77,1.76-1.12,2.62-.34.87-.79,1.74-1.31,2.58-.51.87-1.01,1.51-1.5,2.02-.51.47-1.09.88-1.8,1.27-.71.32-1.69.67-2.94.96-1.28.3-2.47.39-3.58.28-1.11-.12-1.93-.42-2.5-.85-.54-.49-.91-.83-1.17-1.04-.25-.25-.66-.62-1.15-1.12.03-.44-.1-.83-.34-1.18-.25-.31-.47-.9-.63-1.68-.01-.67-.05-1.44-.18-2.23.13-.71.18-1.32.12-1.81-.06-.5.11-1.22.53-2.15.33-.66.47-1.17.44-1.54-.04-.33-.07-.73-.03-1.2,0-.43-.4-.87-1.21-1.34,1.28-.3,2.25-.51,2.94-.66.21.72.54,1.23,1.03,1.46s1.07.11,1.8-.38c.68-.45,1.17-1.02,1.43-1.68.26-.62.51-1.51.78-2.66.35-.97.55-2.02.51-3.12.26-.72.49-1.34.7-1.86.22-.51.31-1.16.3-1.89.51-.71.72-1.19.61-1.45-.12-.26-.03-.5.26-.72.26-.22.35-.53.25-.92-.1-.4-.05-.94.14-1.62.25-.45.42-.83.51-1.11.09-.27.13-.78.16-1.48.35-1.23.56-2.08.63-2.59.08-.51.12-.98.13-1.44.01-.47-.18-.99-.57-1.56-.43-.57-.97-.93-1.67-1.08-.67-.15-1.65-.21-3.01-.17s-2.42.22-3.2.51c-.91.04-1.58.22-2.01.52-.8.23-1.56.46-2.3.68-.73.26-1.46.48-2.2.74-.73.26-1.31.7-1.71,1.33-.43.64-.51,1.25-.26,1.83.26.58.66.95,1.2,1.08.53.12,1,.09,1.46-.12.43-.2.91-.7,1.46-1.51.64.05,1.17-.26,1.61-.96.53.09,1.02-.01,1.45-.31.4-.3.82-.43,1.22-.43.89,0,1.54-.05,1.92-.18.35-.13.86-.2,1.51-.25.62-.01,1.09.02,1.38.13.3.11.6.49.92,1.16-.03.67-.3,1.86-.79,3.57-.33,1.43-.6,2.62-.78,3.5-.18.89-.49,2.15-.91,3.78-.99-.32-2.18-.63-3.5-1,.28-.15.65-.48,1.06-.95Z"/>
          <path class="cls-2" d="M591.87,52.5474c-.13.31-.21.75-.19,1.35-.02.61-.1,1.18-.28,1.69-.19.52.11,1.43.81,2.72,0,.8.2,1.22.56,1.32.34.04.59.23.76.58.15.29.47.5,1,.62.54.1,1.01.16,1.44.2.41,0,.76-.13,1.02-.38.23-.29.46-.57.66-.92.16-.35.24-.82.15-1.32-.09-.53-.31-.81-.71-.85-.4-.03-.78-.04-1.08-.08-1.01-.86-1.45-1.96-1.4-3.3.04-1.34.26-2.66.65-3.96.38-1.3.84-2.61,1.39-3.85.51-1.24,1.16-2.5,1.88-3.75.72-.79,1.2-1.3,1.46-1.52s.42-.6.47-1.14-.08-.96-.36-1.31c-.27-.34-.6-.52-1-.56-.4-.03-.82.07-1.21.23-.42.2-.72.49-.95.84-.24.35-.52.84-.77,1.43-.29.63-.55,1.25-.81,1.9-.86,2.07-1.52,3.76-1.97,5-.45,1.27-.73,2.13-.9,2.61-.18.48-.26.99-.31,1.52-.09.31-.19.62-.31.93ZM623.48,55.9374c.44-.37.68-.75.75-1.23.04-.43-.09-.86-.43-1.3-.36-.44-.76-.61-1.21-.51-.47.04-.88.07-1.29.07-.41-.01-1.23.09-2.47.29-1.24.19-2.64.33-4.18.45.3-.62.66-1.25,1.09-1.92.39-.63.71-1.12.94-1.41.19-.28.45-.87.79-1.7.33-.66.61-1.11.83-1.37.19-.21.31-.45.33-.69.02-.2.12-.61.34-1.19.06-.64.05-1.28,0-1.88-.05-.59-.21-1.15-.5-1.7-.29-.51-.7-.88-1.22-1.1-.56-.2-1.12-.35-1.66-.45-.53-.09-1.11-.14-1.71-.2-2.61-.03-5.25.27-7.95.91-1.04.25-2.08.56-3.1.94-1.05.38-2.04.89-2.98,1.57-.75.76-.88,1.47-.39,2.1s.99,1.03,1.53,1.12c.53.09.98-.04,1.32-.44.34-.39.68-.75,1.05-1.05l.85-.5c.51.03,1-.14,1.5-.48.73-.19,1.26-.36,1.57-.45.31-.1.65-.12,1.02-.02.36.11.78.01,1.21-.29.31-.09.62-.15.93-.14.3.05.64.02,1.06-.08.38-.06.82-.09,1.33-.13.51-.01,1.12.04,1.78.19.67.15,1.04.53,1.2,1.05.12.52-.04,1.2-.51,1.98-1.08,1.88-2.17,3.47-3.26,4.69-1.13,1.26-1.88,2.05-2.28,2.38-.44.33-.84.7-1.29,1.14-.68.05-1.19.09-1.53.05-.37-.04-.68.05-.93.2-.29.19-.7.26-1.24.2-.57-.06-1.26.03-2.09.22-.83.2-1.34.61-1.53,1.22-.34.76-.32,1.33.08,1.84.4.43.91.79,1.5,1.05.78-.33,1.33-.44,1.69-.3.33.08.78.01,1.26-.13.5-.2,1.06-.41,1.62-.59.56-.21,1.33-.5,2.31-.84.44.03.84.03,1.22-.03.58-.38,1.1-.49,1.59-.32.5.13,1.05.05,1.65-.23.32.24.75.28,1.28.1.53-.24,1.01-.34,1.42-.31.81.01,1.66-.06,2.56-.19.9-.21,1.78-.24,2.58-.13.61.05,1.13-.09,1.57-.46ZM613.66,25.5074c-1.31,1.04-2.57,1.91-3.78,2.6-1.26.73-2.22,1.31-2.9,1.69-.72.43-1.45.72-2.21.84.62-.85,1.08-1.49,1.39-1.98.38-.83.7-1.35.96-1.61.22-.22.42-.53.55-.91.14-.34.3-.69.46-1,.17-.32.4-.67.7-1.03.31-.35.38-.76.21-1.15.16-.35.39-.66.66-.95.23-.29.39-.67.51-1.18.53-1.07,1.06-2.05,1.54-2.89,1.01.02,1.73.04,2.13,0,.41.01.79-.02,1.13-.05s.95.03,1.86.09c.92.3,1.54.55,1.83.76.28.25.35.61.24,1.12s-.36,1-.67,1.49c-1.78,1.74-3.33,3.13-4.61,4.16ZM628.47,31.8574c.52.26,1.02.36,1.5.32.44-.03.83-.23,1.14-.65.31-.39.48-.88.5-1.44-.02-.57-.22-.92-.65-1.06-.44-.1-.86-.27-1.29-.43-.37-.01-1.11-.05-2.19-.14-3.61-.19-6.29-.25-8.06-.15-1.77.11-3.88.2-6.37.29.54-.67,1.02-1.18,1.43-1.51.36-.33.94-.67,1.68-1.07.36-.26.7-.55.92-.84.23-.28.49-.57.86-.83.36-.23.66-.55.89-.94.24-.35.54-.67.93-.9.77-.26,1.42-.75,1.89-1.49.32-.56.64-1.11.93-1.64.25-.52.39-1,.43-1.43,0-.41-.07-.83-.23-1.26-.17-.38-.44-.8-.75-1.18-.3-.37-.95-.76-1.86-1.22-1.25-.44-2.51-.71-3.8-.75-1.28-.03-2.43-.08-3.44-.13.45-1.28.76-2.2.95-2.82.19-.58.3-1.09.41-1.57.08-.47.22-.95.43-1.4.18-.45.08-1.24-.34-2.35.75-.05,1.54-.15,2.34-.34.53.12,1.25.1,2.08-.1.51.37.94.43,1.34.2.6.09,1.05.39,1.41.9.33.51.85.73,1.57.68.55-.08,1.07-.25,1.57-.56.5-.27.91-.63,1.25-1.13.35-.49.47-1,.38-1.53-.54-.5-.98-.83-1.35-.93-.39-.11-1.04-.09-2,.02-6.62.5-11.97,1.11-15.99,1.79-4.03.68-6.34,1.09-6.93,1.2-.58.11-1.38.31-2.41.52-.76.12-1.5.42-2.21.84-.72.45-1.05,1.05-.95,1.84.07.4.22.69.48.8.22.12.55.29,1.01.49.45.2.9.1,1.38-.34.44-.4.84-.66,1.19-.83.36-.16.88-.3,1.64-.49.67-.32,1.34-.64,1.98-.89.46.1.91.07,1.26-.09s.91-.34,1.67-.53c.4.13.74.07,1.04-.18.29-.22.64-.39,1.02-.41.44-.04.81-.03,1.15-.06.34.01.65-.05.93-.14s.97-.21,1.99-.28c0,1.2-.08,2.14-.21,2.82s-.33,1.43-.54,2.28c-.24.89-.6,1.88-1.11,3.03-.69.12-1.17.19-1.52.28-.34.09-.69.12-1.1.15-1.03.18-2.06.39-3.1.61-1.04.24-2.08.56-3.07.97-.61.38-1.24.66-1.87.84-.66.19-1.31.6-1.9,1.18-.15.58-.23,1.06-.23,1.46-.04.4.1.73.43.94.31.24.61.38.9.49.3.12.76-.09,1.38-.6.58-.52,1.4-.95,2.42-1.29.97-.28,1.68-.67,2.13-1.17.71.12,1.21.11,1.56-.02.36-.12.67-.28,1.03-.48.32.18.94.1,1.86-.27-1.06,2.75-2.28,5.08-3.67,7.06-1.4,1.98-2.42,3.23-3.02,3.81-.8.66-1.27,1.4-1.48,2.22-3.11.6-5.63,1.2-7.55,1.75-1.91.58-3.45,1.13-4.65,1.69-.44-.43-.79-.74-.97-.99-.22-.22-.4-.47-.58-.76s-.35-.64-.48-1.1c-.16-.46-.4-.84-.78-1.14.12-.55,0-1.11-.3-1.65-.03-.43-.03-.77-.08-1-.05-.2,0-.77.15-1.71.33-.63.44-1.14.35-1.6-.1-.43-.2-.82-.31-1.21-.1-.36-.42-.61-1.02-.73-.6-.09-1.22.06-1.84.51-.65.45-.91,1.07-.8,1.8-.04,1.57.09,2.8.36,3.68.26.88.52,1.8.77,2.75.26.98.59,1.86.99,2.63.41.8.79,1.48,1.12,1.99.1.39.2.82.22,1.28.03.47.4.91,1.14,1.32.59.22,1.2.24,1.82.13.62-.12.97-.54,1.03-1.25.53.09,1.16-.09,1.82-.61.41-.06.73-.22,1.02-.48.26-.22.58-.38.96-.44.34-.06.76-.23,1.26-.46l1.12-.39c.36-.26.67-.35.94-.31.27.05.64-.01,1.07-.21.77-.26,1.6-.43,2.45-.56.83-.09,1.7-.33,2.61-.67.32-.22.67-.28,1.07-.21.36.07.76.21,1.22.41.42.2.81.37,1.17.47.33.11.85.07,1.51-.18.63-.21,1.46-.71,2.44-1.49l1.35-.27c.6.12,1.07.12,1.46-.01.38-.13.79-.13,1.18-.03.43-.16.8-.19,1.2-.05.35.17.74.07,1.14-.29.61.35,1.14.51,1.56.45.4-.03.93-.21,1.56-.46.6.49,1.37.67,2.32.59.61.09,1.15.12,1.66.01.74.14,1.68.24,2.83.25.89-.07,1.86.06,2.85.38ZM562.25,37.8774c.29-.56.56-.98.86-1.27s.46-.64.57-1.01c.12-.68.52-1.31,1.14-1.86.59-.55,1.01-1.05,1.18-1.5.18-.44.45-.8.81-1.09.67-.69.98-1.15.93-1.35-.05-.19.14-.41.57-.67.39-.23.89-.84,1.51-1.76.11-.44.22-.92.29-1.39.04-.47-.09-.86-.44-1.1-.36-.24-.65-.35-.88-.4-.24-.05-.55.01-.93.1-.38.1-.79.46-1.25,1.1-.39.63-.78,1.23-1.17,1.73-.38.5-.81,1.1-1.23,1.73-.47.67-.75,1.19-.92,1.57-.17.42-.34.73-.56.98-.45.51-.84,1.04-1.13,1.63-.29.62-.61,1.21-1,1.78-.46.64-.76,1.26-.88,1.87-.35.49-.62.92-.85,1.27-.66.85-1.09,1.59-1.31,2.17-.26.59-.37,1.07-.37,1.43,0,.4,0,.77.04,1.1,0,.37.15.69.46.94.4.5.85.77,1.32.83.47.07,1.05.05,1.67-.06s1.14-.29,1.57-.52c.49-.17.89-.54,1.18-1.06.25-.52.22-.99-.09-1.36-.3-.38-.63-.52-.94-.47-.31.06-.65.09-.99.11-.38.03-.48-.4-.33-1.28.51-.84.92-1.57,1.17-2.19ZM573.29,42.7074c0-.36.03-.7.12-.97.1-.28.16-.58.19-.95.03-.34.07-.78.18-1.32.08-.54.2-1.09.32-1.66.27-.46.5-1.11.71-1.93.2-.82.42-1.77.69-2.93-.03-.4.07-.77.28-1.15.2-.39.34-.87.4-1.47.05-.57.15-1.05.36-1.43.16-.35.34-.8.45-1.27.11-.48.19-1.06.18-1.72.35-.43.52-.84.52-1.25.26-.62.45-1.23.57-1.84.12-.62.26-1.09.5-1.48.2-.38.36-1.03.44-1.97.21-.82.49-1.64.76-2.47.32-.49.52-.94.59-1.35.07-.37.2-.71.4-1.03.2-.31.22-.62.05-.94.31-.46.56-.98.74-1.53.19-.54.3-1.12.32-1.69.17-.41.42-.87.67-1.42.27-.36.43-.67.49-.98.03-.3.21-.81.54-1.51.33-.69.55-1.24.72-1.62.16-.35.24-.89.27-1.59.25-.46.18-.89-.15-1.33-.37-.44-.93-.7-1.66-.81-.51.04-1.05.35-1.61.89-.73.66-1.06,1.36-1.02,2.02-.17.75-.39,1.7-.7,2.93-.27.79-.38,1.26-.29,1.46.08.19.02.46-.14.81-.31.43-.45.87-.49,1.31s-.14.84-.28,1.26c-1.02,3.48-1.84,6.62-2.42,9.4-.62,2.79-1.19,5.08-1.69,6.92s-.99,3.62-1.44,5.29c-.45,1.6-.9,3.28-1.32,4.98s-.74,3.43-.93,5.12c-.22.68-.38,1.3-.43,1.87-.09.61-.22,1.39-.41,2.4-.12.55-.24,1.12-.4,1.8-.16.69-.3,1.53-.42,2.54-.16,1.02-.36,2.07-.59,3.16-.18.51-.19,1.05-.07,1.57-.37,1.2-.47,2.34-.37,3.47.18,1.09.61,1.59,1.23,1.51.62-.15,1.17-.25,1.66-.39.49-.21.83-.63,1-1.35.17-.75.19-1.38.03-1.94.12-.94.15-1.65.08-2.04-.07-.4-.12-.96-.19-1.69.16-1.02.28-1.7.32-2.1.03-.37.03-1.14.06-2.31.28-.86.44-1.44.47-1.77.02-.34.11-.88.24-1.66.13-.75.18-1.65.13-2.65.24-.42.34-.8.34-1.2Z"/>
          <path class="cls-2" d="M679.3,17.2974c-.62.59-1.02,1.29-1.17,2.17-.01.5.13.89.37,1.17.25.28.57.49.93.66.36.18.7.15,1.03-.11.32-.22.61-.45.87-.67.25-.18.51-.4.74-.69.48-.47.87-.63,1.16-.52.3.11.65-.05,1.06-.48.4.13.89-.04,1.47-.48.91.09,1.49.01,1.75-.21.22-.21.67-.28,1.34-.2.68-.08,1.19-.06,1.51.12.33.17.78.04,1.36-.41.72.28,1.22.41,1.49.42.27.05.57.13.89.3.65.36,1.22.41,1.72.14.49-.24.86-.6,1.17-1.06.28-.42.35-.9.19-1.38-.16-.49-.45-1.01-.85-1.54-.65-.25-1.28-.47-1.94-.66-.66-.15-1.38-.16-2.2-.03-.83.13-1.65.23-2.39.22-1.1.08-2.23.27-3.44.53-1.25.26-2.11.46-2.63.6s-1.29.4-2.34.78c-.78.33-1.49.75-2.09,1.33ZM679.76,32.6074c-.44-.04-.8-.11-1.1-.15-.3-.05-.79.03-1.48.21-.69.19-1.2.56-1.56,1.19s-.39,1.3-.04,2.01c.31.71.79,1.04,1.47,1.02.56.53,1.15.78,1.76.77.87.5,1.5.69,1.89.56.38-.13.75-.09,1.11.08.32.21.79.31,1.33.33.54.03,1.14.15,1.73.37.6.09,1.17.14,1.71.24.53.09,1.51.15,2.99.23l2.48.02c.81,0,1.83.02,3.01.03.63-.15,1.13-.45,1.57-.89.41-.43.62-.85.62-1.28.01-.4-.06-.8-.16-1.19-.11-.36-.33-.58-.62-.69-.3-.11-.63-.15-.97-.16-.38.03-.93.1-1.61.22-.68-.01-1.19,0-1.57.06-.41.1-.89.1-1.43.07-.57-.02-1.52-.01-2.88.02-.81-.13-1.61-.24-2.38-.31-.81-.08-1.68-.28-2.6-.54-.96-.26-1.78-.6-2.49-1.05-.1-.72-.37-1.14-.78-1.17ZM655.45,27.5874c.29-.26.5-.71.55-1.31.45-.44.64-.75.67-1.02-.02-.24.13-.72.39-1.4.26-.22.38-.5.38-.84-.04-.33.06-.7.26-1.09.2-.34.44-.76.69-1.25.23-.25.35-.56.46-.94.09-.34.27-.79.52-1.31.28-.86.5-1.47.67-1.82.16-.35.31-.93.39-1.8.43-.3.72-.86.92-1.64.41-.74.72-1.23.92-1.51.19-.25.36-.73.5-1.48.21-.15.44-.4.74-.76.27-.35.47-.63.59-.91.12-.24.34-.76.68-1.56.5-.27.73-.55.68-.82-.04-.26.27-.75.91-1.4.66-.59,1.14-1.03,1.5-1.29.36-.23.62-.55.86-.97.21-.38.25-.88.13-1.48-.15-.59-.36-.9-.69-.95-.34-.04-.64-.05-.95-.02-.31.02-.65.08-1.07.15-.8.26-1.52.78-2.13,1.5-.6,1.01-1.07,1.75-1.38,2.17-.31.46-.95,1.61-1.85,3.42-.39.9-.94,2.11-1.61,3.63-.71,1.53-1.44,3.22-2.14,5.08-.71,1.86-1.56,4.23-2.52,7.04-.96,2.85-1.79,5.42-2.47,7.68-.67,2.29-1.29,5.08-1.81,8.36-.3,1.43-.48,2.41-.57,2.95-.11.54-.08.98.06,1.33.13.39.09.83-.16,1.35-.14.92-.16,1.52-.09,1.81.08.3.08.63.02,1.04.01.6.06,1.16.09,1.63.03.46.13.86.28,1.11.11.3.18.56.16.79.17.79.6,1.36,1.24,1.78s1.33.7,2.03.78c.92-.07,1.75-.23,2.49-.53.74-.25,1.33-.5,1.82-.67.49-.14.94-.27,1.29-.4s.62-.48.81-1.03c.18-.55.28-.96.28-1.26-.05-.3-.19-.62-.46-.97-.28-.34-.67-.51-1.22-.47-.54.04-1.2.19-1.96.38-.78.36-1.65.56-2.6.64-.63-.56-1.04-1.36-1.21-2.45-.18-1.09-.23-2.02-.1-2.77.13-.74.19-1.35.16-1.81-.03-.47.02-.97.07-1.54-.22-.59-.17-1.2.16-1.89-.01-.67.08-1.24.22-1.69.14-.44.17-.78.12-1.04-.04-.23.01-.47.24-.76.19-.28.27-.72.26-1.39.3-.42.49-1.04.53-1.84.18-.48.35-.9.44-1.2.1-.31.25-.83.48-1.51.36-.63.48-1.24.33-1.83Z"/>
          <path class="cls-2" d="M27.24,186.0474c-.55,1.65-1.06,3.15-1.44,4.45-.39,1.3-.7,2.53-.93,3.68-.24,1.16-.6,2.52-1.08,4.16-.34.43-.55.88-.65,1.29-.11.44-.18.85-.25,1.26-.44.8-.62,1.65-.53,2.54-.2.42-.41.87-.62,1.32-.25.49-.38,1.17-.46,2.07-.47,1.55-.73,2.53-.7,3,0,.43.03.83.07,1.2.04.3.32.57.81.77.5.16,1,.26,1.51.22s1.01-.38,1.5-.92c.46-.6.54-1.14.25-1.62-.3-.51-.4-1.27-.24-2.29.16-1.15.33-1.9.43-2.2.09-.31.19-.69.23-1.09.19-.62.45-1.34.73-2.23.08-.91.21-1.55.37-1.9.17-.35.34-.76.45-1.17.09-.68.2-1.19.37-1.53.16-.35.35-.93.59-1.72.14-.81.32-1.39.52-1.74.17-.35.3-.73.34-1.13.03-.37.14-.88.37-1.5.07-.44.17-.78.29-.99s.21-.52.32-1c.08-.47.37-1.43.87-2.94,1.09.32,2.05.65,2.87.95.78.34,1.44.56,1.97.69.53.12,1.19.41,2.03.84.5.53.93.97,1.31,1.27.35.31.71.48,1.05.46.34.01.82-.1,1.42-.31.56-.21.96-.58,1.14-1.09.19-.52.19-.99-.04-1.44s-.55-.72-.91-.83c-.4-.1-.68-.31-.9-.56-1.45-.53-2.6-.87-3.4-1.08-.83-.17-1.42-.43-1.8-.76-.89-.27-1.71-.54-2.5-.81-.79-.28-1.85-.67-3.12-1.17,1.56-1.26,2.93-2.56,4.06-3.85.76-.53,1.36-1.18,1.8-1.95.6-.64,1.05-1.11,1.38-1.4.33-.3.68-.76,1.03-1.32.36-.56.6-1.08.71-1.49.1-.41.18-.88.19-1.45-.02-.54-.14-1.06-.41-1.51-.26-.45-.64-.79-1.12-1.08-.58-.39-1.03-.63-1.37-.7-.33-.07-.97-.09-1.92-.09-2.32.08-4.59.46-6.82,1.13-2.26.67-3.9,1.2-4.95,1.61-1.06.42-2.25.88-3.55,1.45-1.34.57-2.41,1.12-3.2,1.65-1.07.55-1.88,1.31-2.41,2.29-.2.35-.36.69-.5,1.1-.14.42-.08.88.15,1.4.23.51.6.85,1.06,1.02.46.2.97.16,1.5-.08.74-.26,1.27-.57,1.65-.97.37-.39.49-.94.34-1.59l1.17-.96c.4-.33.83-.57,1.25-.73.37-.3.86-.57,1.46-.82.56-.21,1.24-.53,1.98-.95.76-.06,1.46-.31,2.07-.76l.79-.5c.74.11,1.25.04,1.55-.21.26-.26.54-.45.86-.54.31-.09.58-.08.81.01.23.08.78-.03,1.62-.3.88,0,1.6-.09,2.12-.23s1.03-.11,1.56.09c.42.16.67.38.79.64.11.26.02.5-.2.71-.26.26-.61.75-1.01,1.45-.68.86-1.4,1.65-2.11,2.37-.83.66-1.4,1.28-1.68,1.8-.32.52-.73,1.02-1.29,1.53-.55.52-1.14,1.03-1.73,1.54-.71.46-1.16.86-1.39,1.21s-.57.68-.97.98c-.43.3-.94.74-1.57,1.32-.66.59-1.11,1.02-1.37,1.31-.65.42-1.13.92-1.42,1.48-.56.24-1,.54-1.37.91-.37.36-1.03.94-1.98,1.75-.96.84-1.81,1.68-2.53,2.54-.85.39-1.46.81-1.83,1.21-.38.43-.82.79-1.36,1.14-.93.57-1.58.95-1.93,1.11-.39.2-.65.45-.78.76s-.16.68-.13,1.12c-.22.58-.09,1.04.42,1.4s.97.53,1.42.46c.41-.06.83-.23,1.26-.5.4-.23.98-.71,1.79-1.44,1.36-1.24,2.41-2.29,3.09-3.07.67-.79,1.79-1.91,3.37-3.34,1.55-1.42,3.43-3.17,5.61-5.21.47.13,1.07.25,1.8.4ZM29.07,154.7274c.15.52.29,1.28.48,2.2.16.96.14,1.86,0,2.71.15.59.13,1.22.01,1.84-.12.64-.28,1.25-.47,1.84-.19.61-.06,1.17.3,1.68.71.44,1.38.49,1.95.18s.89-.87.92-1.61c.39-1.36.65-2.82.71-4.3.07-1.47.05-2.47-.04-2.97-.09-.49-.2-1.18-.33-2.08-.14-.69-.29-1.28-.42-1.74-.13-.45-.29-.94-.49-1.43-.19-.48-.43-.87-.68-1.15-.24-.28-.81-.4-1.73-.33-.93.13-1.49.75-1.68,1.76-.19,1.05.12,1.73.98,2,.17.39.33.88.49,1.4ZM66.51,182.9674c-.6.21-1.46.41-2.59.57,1.46-1.25,2.92-2.43,4.34-3.51s2.31-1.98,2.68-2.75c.33-.62.41-1.23.33-1.83-.12-.59-.45-1.07-.95-1.49-.31-.38-.97-.53-2-.45-.67-.05-1.28-.04-1.84.07-.55.11-.99.14-1.37.17-.41.03-.96.14-1.65.26.04-2.04.23-3.42.57-4.18.34-.77.55-1.65.64-2.66.91-.3,1.63-.46,2.14-.47.51.03.96-.07,1.38-.23.39-.17,1.11-.29,2.13-.34.49.27.89.37,1.23.28.35-.06.76-.13,1.24-.2.48-.03.74.08.78.41,0,.33.34.34,1.04.09.82,0,1.41.26,1.8.83s.59,1.32.65,2.22-.12,1.75-.5,2.58c-1.17,2.96-2.09,4.91-2.72,5.89-.66.99-1.71,2.1-3.1,3.35-.78-.08-1.5.08-2.18.4-.78.46-1.46.81-2.05.99ZM43.5,186.6074c.27.84.52,1.49.75,1.98.23.48.46.86.71,1.18.24.32.65.68,1.23,1.08.69.54,1.34.86,1.95.91.57.06,1.09-.11,1.54-.51.44-.37.62-.89.57-1.52-.05-.6-.22-.98-.48-1.1-.26-.11-.62-.25-1.01-.42-.43-.14-.95-.43-1.55-.92-.4-.9-.75-1.58-.98-2.03-.27-.71-.4-1.24-.4-1.61-.04-.33-.21-.72-.51-1.16.24-1.22.37-2.3.36-3.27-.22-.65-.13-1.23.25-1.69s.45-.9.25-1.32c-.24-.38-.26-.95-.09-1.67.37-.83.57-1.51.62-2.08.01-.54.11-1.25.28-2.06.29-.56.47-1.11.51-1.58s.18-.92.43-1.4c.25-.49.52-.94.84-1.44.32-.62.64-1.15.88-1.57s.25-.85.05-1.37c-.22-.52-.81-.78-1.83-.76-1.02.01-1.83.81-2.45,2.46-.57,1.85-1.13,3.96-1.64,6.34-.52,2.38-.81,4.61-.9,6.72-.08,2.11-.09,3.45-.04,3.98.05.56.09,1.29.15,2.23.15.92.31,1.78.51,2.6ZM64.92,176.7374c.33.11.88-.03,1.69-.4.72-.05,1.18.15,1.41.57-1.74,1.67-3.64,3.22-5.66,4.64.26-1.42.59-2.89,1.07-4.43.67-.35,1.16-.49,1.49-.38ZM62.09,171.0774c-.19,1.42-.39,2.57-.61,3.49-1.15.35-2.26.67-3.34.95-1.08.32-2.06.63-2.93.9-.9.3-1.65.63-2.29.98-.86.56-1.39,1.24-1.6,2.02-.21.82-.02,1.37.53,1.73.54.36,1.11.45,1.74.2.6-.21,1.07-.55,1.45-.98.37-.43.91-.77,1.62-1.09.67-.28,1.23-.49,1.68-.63.42-.13.74-.29.96-.47.18-.15.64-.32,1.36-.48-.43,1.84-.8,3.77-1.18,5.74-.87.67-1.56,1.16-2.02,1.43-.43.6-.58,1.14-.45,1.6-1.18.29-2.32.58-3.49.8-1.01.68-1.45,1.39-1.33,2.05.07.66.31,1.07.67,1.18.37.11.7.21.99.33.3.11.82-.07,1.6-.46.63-.18,1.09-.42,1.45-.65s.82-.46,1.42-.78l-2.22,14.18c-.63,4.09-1.16,7.47-1.6,10.18-.11,1.21-.01,2.01.36,2.38.34.37.67.55.97.59.3.01.68.02,1.09-.01.41-.04.78-.4,1.11-1.06.33-.69.35-1.3.05-1.81.28-.49.29-.95-.01-1.43-.07-1.07-.11-1.8-.14-2.2-.03-.43-.01-1.07.03-1.94.11-.88.38-3.17.77-6.88.39-3.7,1.14-7.94,2.23-12.73.84-.3,1.51-.49,1.98-.52.48-.04.96-.11,1.45-.21.48-.11,1.14-.32,1.99-.66-.15.88-.16,1.42-.01,1.64.11.26.5.46,1.09.69.81,0,1.47-.08,1.96-.25.49-.18.96-.55,1.35-1.18.4-.6,1.19-1.53,2.32-2.78.73-.99,1.47-2.09,2.22-3.28.74-1.19,1.3-2.11,1.63-2.77.32-.62.61-1.21.93-1.74.32-.52.64-1.12.97-1.81.34-.69.67-1.46.98-2.28.28-.82.53-1.78.7-2.89.16-1.12.21-2.09.09-2.95-.27-.82-.59-1.43-.99-1.86-.44-.44-.82-.71-1.15-.82-.37-.1-.66-.28-.84-.54-.21-.25-.51-.36-.88-.4-.41,0-.78-.04-1.17-.14-.4-.1-1.04-.19-1.88-.29-1.36.1-2.56.26-3.63.41-1.1.15-2.54.36-4.33.63.21-1.22.35-2.03.39-2.43.03-.41.06-.74.16-1.08.06-.34.13-.78.25-1.33.12-.54.46-1.8,1.04-3.72.26-.62.37-1.1.36-1.46,0-.37.11-.88.34-1.5.52-1.31.93-2.18,1.25-2.64.3-.42.37-.83.2-1.15-.21-.32-.59-.69-1.16-1.04-.58-.36-1.16-.38-1.66-.08-.5.31-.89.84-1.16,1.59-.27.76-.58,1.99-.93,3.65-.27,1.53-.57,3.45-.94,5.79-.38,2.33-.8,4.4-1.26,6.18-1.35.3-2.35.58-3.02.8-.66.25-1.36.47-2.12.66-.77.19-1.89.58-3.39,1.16-.78.36-1.4.78-1.87,1.22-.52.47-.87.93-1.11,1.42-.25.55-.34,1.13-.26,1.72.09.6.4.94.87.97s.91.03,1.29-.03c.34-.03.79-.49,1.34-1.34.27-.42.75-.79,1.39-1.18.64-.38,1.14-.62,1.52-.71.35-.1.84-.34,1.42-.71.94-.28,1.57-.46,1.92-.62s.94-.24,1.82-.27c-.05.6-.17,1.62-.33,3Z"/>
          <path class="cls-2" d="M157.53,196.7074c-1.58-.55-3.2-1.39-4.87-2.5-1.67-1.08-2.71-1.9-3.11-2.44l-1.25-1.54c-.35-.71-.65-1.19-.86-1.4-.26-.18-.41-.44-.49-.7-.07-.26-.18-.62-.27-1.08.31-.86.22-1.46-.29-1.79-.52-.29-1.05-.35-1.68-.13-.63.24-1.08.68-1.31,1.33-.26.69,0,1.57.79,2.65.77,1.31,1.87,2.7,3.33,4.15,1.47,1.5,3.09,2.67,4.88,3.61,1.78.93,3.24,1.72,4.33,2.34.51.43,1,.62,1.45.59.41-.07.74.04.92.33.18.22.58.36,1.18.38.66.25,1.12.38,1.46.42.34.01.71.05,1.11.15.4.03.73.18,1.01.46.28.21.8.13,1.5-.15.71-.36,1.15-.76,1.26-1.17.1-.44.08-.91-.09-1.33-.16-.45-.68-.75-1.52-.85-3.43-.34-5.93-.78-7.48-1.33ZM146.06,183.5774c.2.49.61.79,1.24.95.6.15,1.3-.07,2.03-.69,1.54-1.33,2.88-2.3,4.02-2.95,1.14-.63,2.18-1.21,3.14-1.71.95-.48,1.87-.82,2.69-.98.73-.19,1.35-.6,1.84-1.21.46-.57.44-1.2-.08-1.83-.55-.63-1.01-.86-1.43-.73-.41.13-.94.38-1.59.76-1.5.85-2.53,1.46-3.08,1.84-.54.37-.97.64-1.32.8s-.92.47-1.71.94c-.32.15-.75.39-1.28.66-.53.28-.96.54-1.33.81-.36.29-.68.48-1,.61-.31.12-.81.39-1.53.78-.61.82-.84,1.47-.61,1.95ZM163.16,142.4674c.55-.44.69-.92.4-1.5-.29-.55-.8-.91-1.46-1.12-.89.03-1.44.14-1.73.36l-1.65,1.4c-.64.42-1.66,1.16-3.01,2.27-1.39,1.11-3.35,2.63-5.96,4.57-.53.6-.93.94-1.24,1.03-.32.09-.58.41-.77,1.02l-1.03.52c-.67.65-1.21,1.03-1.62,1.06-.41.06-.92.4-1.48,1.05-.4.23-.78.36-1.19.39s-.79.13-1.14.25c-.87-.13-1.55-.18-2.02-.14-.48.03-1.06.11-1.75.2-.36-.51-.75-.78-1.12-.82-.37,0-.69-.21-.96-.66-.26-.45-.56-.96-.84-1.61-.32-.61-.4-1.27-.19-2.02-.09-.53-.08-1.03.03-1.54s.43-1,1.01-1.45c.58-.44.86-.93.84-1.53-.01-.57-.15-.96-.47-1.13-.33-.18-.76-.25-1.34-.27-.61-.02-1.18.29-1.77.87-.84.67-1.3,1.7-1.42,3.08-.13,1.42-.04,2.75.26,3.99.3,1.25.81,2.42,1.59,3.49.69.72,1.22,1.21,1.54,1.45.32.25.9.57,1.68.95-.7.25-1.23.46-1.64.56-.42.09-.8.22-1.09.38-.28.16-.66.25-1.08.35-.45.1-1.01.31-1.69.7-1.04.21-1.82.67-2.36,1.45-.55.78-.46,1.37.17,1.86.64.48,1.19.71,1.64.71.4,0,.82-.13,1.25-.43.4-.3.85-.7,1.37-1.24.97-.61,2.03-1.1,3.18-1.45.71-.39,1.2-.63,1.48-.65.27-.02.76-.23,1.55-.65.63-.29,1.15-.39,1.55-.36.41.04,1.07-.15,2.02-.59.82.01,1.61-.19,2.42-.55.96-.07,1.96-.25,2.97-.53.62-.18,1.21-.29,1.79-.3.57.02,1.49-.02,2.71-.04.71.08,1.42.09,2.14.03.87.14,1.7.27,2.51.35.72.31,1.29.4,1.71.27.42-.14.81-.33,1.2-.63.37-.3.58-.71.62-1.25.02-.54-.12-.93-.37-1.18-.25-.24-.77-.44-1.58-.58-1.08.02-2.1.03-3.13.11-.53-.09-1.38-.1-2.61.03-.89.14-1.61.19-2.15.17-.58-.03-1.22.02-1.98.15.74-.73,1.44-1.35,2.06-1.83.58-.45,1.5-1.22,2.7-2.25,1.21-1.02,2.09-1.76,2.65-2.27.55-.48,1.06-.88,1.56-1.22.47-.34,1.02-.75,1.67-1.2.61-.45,1.3-.9,2.05-1.36.48-.04.97-.28,1.52-.72ZM138.18,195.0474c-.51,1.84-.88,2.98-1.12,3.39l-1.11,2.3c-.56.91-1.25,1.13-2.06.66-2.09-1.28-3.46-2.35-4.13-3.23-.67-.89-1.34-1.67-2.03-2.39.8-.52,1.43-.84,1.92-.91.48-.07.8-.26.99-.54.2-.29.6-.65,1.22-1.1.72-.12,1.18-.33,1.38-.64.19-.32.45-.5.76-.56.3-.02.74-.36,1.34-.97.87-.3,1.62-.69,2.27-1.15.61-.44,1.32-.77,2.12-.99-.54,2.24-1.05,4.29-1.55,6.13ZM141.1,192.6174c.05-.54.26-1.39.6-2.55s.8-3.34,1.35-6.52c.55-3.19.86-5.15.92-5.92.07-.74.34-1.97.87-3.68,1.24-.29,2-.45,2.35-.54.35-.1.93-.21,1.83-.38s1.69-.3,2.41-.35l1.94-.15c1.06.29,1.88.29,2.44.05.63.15,1.13.21,1.55.15.37-.03.79-.1,1.23-.13.41-.03.76-.16,1.05-.42.26-.22.37-.69.29-1.36-.08-.66-.34-1.11-.87-1.33-.52-.23-1.16-.21-1.93.05-.81.26-1.46.37-2,.32-2.94.32-6.16.7-9.66,1.17.09-1.08.2-1.89.3-2.36.11-.48.39-1.7.76-3.64.93-.07,1.8-.03,2.61.11-.26.95-.31,1.59-.2,1.85s.4.47.8.57c.39.14.84.07,1.34-.23.5-.31,1-.62,1.44-.95s.72-.82.91-1.44.2-1.15.07-1.61-.44-.8-.97-1c-.52-.16-1.12-.28-1.73-.3-.64-.01-1.89-.09-3.75-.14.27-.83.44-1.64.52-2.52.15-.88-.07-1.49-.65-1.85-.62-.32-1.19-.31-1.76,0s-.92.81-1.08,1.45l-.17,3.86c-1.73.43-2.91.69-3.56.81-.66.11-1.31.23-2.01.42-.69.19-1.74.6-3.12,1.24-.93.57-1.51,1.35-1.73,2.34-.26,1.02.05,1.67.91,1.93.86.27,1.54.22,2.02-.15.44-.37.76-.93.89-1.67.5-.31.96-.54,1.38-.64.38-.1.91-.34,1.55-.69.75.01,1.29-.07,1.61-.19.32-.13.9-.24,1.8-.37-.27,1.12-.45,2.04-.55,2.78-.14.75-.26,1.76-.44,3.07l-4.18.89c-2.04.43-3.85.93-5.39,1.52s-3.08,1.07-4.57,1.45c-.96.48-1.64.9-2.07,1.2-.44.3-.59.84-.38,1.56.18.73.55,1.13,1.12,1.19.54.06,1.05.02,1.5-.08.42-.1.99-.45,1.65-1.07,2.17-1.1,3.93-1.87,5.33-2.31,1.39-.44,3.65-1.01,6.77-1.79-.48,3.11-1.2,7.04-2.15,11.76-1.04.18-1.8.41-2.3.68s-1.07.58-1.75.97l-3.06,1.67-1.18.69c-.1-1.23-.4-2-.84-2.37-.45-.33-.85-.74-1.15-1.22-.42-.63-.81-1.17-1.25-1.67-.43-.5-.86-.97-1.32-1.47-.47-.5-1.12-.82-1.92-1.02-.83-.21-1.53.08-2.07.82-.7,1.03-.78,1.9-.16,2.59.59.69,1.44.96,2.61.77.46.26.79.71.94,1.3.15.62.38,1.1.72,1.48.3.44.53.96.61,1.56.05.53.22.98.49,1.36-4.49,2.48-8.69,4.78-12.58,6.91-1.04.75-1.49,1.56-1.33,2.41.17.86.53,1.37,1.09,1.56.56.15,1.11.11,1.61-.16.5-.31.89-.54,1.18-.76l1.21-1.36c.44-.37.87-.64,1.32-.8.42-.17.75-.36.97-.58l.97-1.08c.62-.04,1.21-.26,1.82-.64,1.04,1.33,2.22,2.54,3.62,3.63,1.4,1.1,2.81,1.99,4.27,2.75,1.1.55,2.04.71,2.81.49.76-.26,1.34-.64,1.73-1.17.39-.6.75-1.3,1.17-2.13.41-.83.85-1.97,1.34-3.38.34-1.16.6-2.22.79-3.13.21-.85.37-1.57.45-2.11ZM115.97,176.3674c-.65-.32-1.17-.58-1.49-.76-.36-.17-.8-.6-1.35-1.33-.02-.53.08-1.21.28-1.99.15-.95.34-1.93.56-2.95.01-.91.09-1.82.28-2.73.18-.92.36-1.87.52-2.88.15-.98.34-2,.57-3.09,1.05-.28,1.84-.44,2.39-.55.55-.07,1.08-.25,1.57-.49.59.26,1.17.25,1.77,0,.64.02,1.33-.13,2.04-.46.48-.1.81-.32.97-.6s.25-.63.35-1c.1-.34-.03-.77-.4-1.21s-.93-.56-1.63-.41c-.69.16-1.38.31-2.03.43-2.27.37-3.76.69-4.43.94.51-4.29.76-6.71.81-7.32.02-.57-.03-1.16-.18-1.75s-.41-1.14-.77-1.68c-.6-.16-1.22-.08-1.85.24-.64.32-1.02.78-1.11,1.42-.13.68-.18,1.22-.15,1.68.03.5.11,1.43.23,2.83.11,1.39.01,3.34-.31,5.8-1,.28-2.26.64-3.75,1.06-1.53.42-4.53,1.38-9.04,2.93-1.49.72-2.62,1.24-3.39,1.53s-1.32.77-1.68,1.4c-.37.66-.38,1.27-.06,1.78.3.51.75.77,1.29.8s1.06-.05,1.47-.18c.42-.13.93-.47,1.55-1.05.68-.32,1.47-.85,2.35-1.59.45-.13.94-.34,1.51-.58.43.1.89-.1,1.4-.54.48-.04.84-.27,1.15-.69.32.17.59.22.77.1.18-.11.43-.33.73-.62.64.09,1.3-.13,1.95-.58.45-.07.83-.17,1.18-.26.34-.09,1.17-.29,2.49-.56l-.33,3.7c-.04.47-.34,1.93-.86,4.38-1.01.38-1.62.72-1.81,1.01-.2.28-.5.64-.94,1.07-.37.3-.82.77-1.42,1.48-.61.72-1.17,1.29-1.72,1.77-.71.35-1.25.8-1.71,1.37s-.91,1.07-1.29,1.5c-.36.33-.67.69-.9,1.04-2.07,1.96-3.71,3.59-4.9,4.85-1.2,1.3-2.02,2.1-2.46,2.46-.43.37-.85.8-1.19,1.3-1.18.66-1.81,1.67-1.93,3.02.02.57.39,1.01,1.04,1.29s1.43-.08,2.3-1.11c.05-.21.2-.39.46-.57.22-.19.52-.54.87-1.04.35-.49.73-.96,1.13-1.35,2.65-3.05,5.54-5.94,8.64-8.72.37-.36.7-.72,1.01-1.08.3-.36,1.03-.98,2.13-1.87.22.95.64,1.52,1.31,1.71-.43,2.9-1.05,6.12-1.83,9.59-.78,3.5-1.87,7.4-3.26,11.72-.37.29-.76.52-1.15.72-.43.23-.73.62-.98,1.18-.26.55-.27,1.09-.04,1.54s.42,1.07.48,1.87c.45.36.91.53,1.42.52.51-.04.93-.27,1.32-.77.38-.5.83-1.33,1.34-2.54-.09-.49.05-.97.36-1.4.12-.64.33-1.49.59-2.52.63-2.52,1.26-5.11,1.97-7.73.41-2.34.88-4.68,1.46-7.03.14-.82.3-1.53.43-2.14.12-.61.25-1.32.39-2.2.67.15,1.13.31,1.39.46.25.14,1.51.52,3.76,1.15.53.16,1.02.32,1.49.45.46.17.99.26,1.56.31,1.02.46,1.86.5,2.5.11.65-.38.93-.94.92-1.6,0-.67-.27-1.12-.76-1.32-.5-.16-1.09-.31-1.76-.43-.74-.08-1.34-.16-1.85-.23-.5-.06-1.07-.11-1.71-.16-.69-.25-1.38-.53-2.03-.85Z"/>
          <path class="cls-2" d="M197.04,156.1474c0-.34.15-.55.43-.64s.5-.27.59-.54c.09-.28.18-.85.22-1.73.42-.13.75-.49,1.01-1.08.51-.37.88-.73,1.08-1.15.17-.38.41-.73.71-1.09.37-.36.8-.66,1.3-.93.47-.27.77-.7.93-1.28.15-.58.13-1.08-.04-1.5-.2-.42-.51-.73-.93-.96-.4-.17-.9-.24-1.45-.19-.56.21-1.02.48-1.46.81-.43.33-.92.91-1.44,1.75-.37.7-.81,1.5-1.36,2.41-.56.91-1.01,1.85-1.44,2.82-.42.96-.84,1.87-1.32,2.74-.57,1.01-1.02,1.91-1.36,2.74s-1.03,2.45-2.05,4.87c-1.03,2.42-1.63,3.84-1.74,4.28-.1.44-.31.89-.59,1.35-.48.9-.87,1.8-1.15,2.73-.29.92-.56,1.74-.76,2.46-.42.57-.63.98-.58,1.22.05.23-.02.53-.15.88-.13.34-.3.69-.49,1-.23.32-.31.76-.22,1.36-.22.58-.46,1.33-.74,2.26-.29.92-.51,1.87-.59,2.82-.12.94-.15,1.78-.11,2.48s.24,1.42.66,2.12c.22.55.61,1.12,1.1,1.72.49.63.95,1.13,1.43,1.56.56.56,1.09,1.09,1.63,1.51.45.24.94.5,1.39.8.44.33.9.57,1.33.67.4.1.91-.01,1.52-.39.58-.38.95-.77,1.1-1.25.14-.45.18-.92.09-1.41-.1-.5-.54-.86-1.4-1.13-.99-.26-1.54-.58-1.64-.94-.11-.36-.5-.53-1.18-.48-.51-.46-.89-.77-1.18-.95-.29-.14-.47-.43-.56-.86-.11-.39-.33-.91-.72-1.48-.49-.63-.68-1.55-.58-2.73.07-1.14.51-2.74,1.3-4.74.78-2,1.43-3.62,1.95-4.83.14-.81.44-1.61.89-2.44.41-.8.68-1.59.75-2.37.25-.48.49-.97.73-1.42.24-.42.37-1.07.41-1.87.65-.45,1.03-.95,1.21-1.5.19-.55.29-1.02.33-1.46.04-.4.21-.79.54-1.11.33-.33.51-.74.52-1.24.31-.5.52-.91.62-1.29.1-.37.27-.82.52-1.31.64-.38.95-.74.94-1.07ZM222.43,182.2674c-.21.42-.44.77-.67,1.06-.26.28-.49.57-.72.89-.23.31-.84.59-1.77.83-.94.28-1.76.34-2.47.26-.7-.08-1.45-.39-2.25-.93-.1-.83-.09-1.4.04-1.71s.33-.62.59-.91c.23-.29.74-.66,1.45-1.08.72-.43,1.52-.69,2.41-.76.89-.16,1.59-.32,2.1-.42.52-.11,1.25-.23,2.17-.3-.2,1.08-.49,2.11-.88,3.07ZM214.98,159.9774c.84-.19,1.63-.32,2.38-.41s1.34-.17,1.79-.27c.41-.07.89-.17,1.38-.28.48-.1.86-.13,1.12-.02.23.12.78.01,1.62-.25.72.21,1.27.13,1.61-.26.93-.11,1.81-.14,2.62-.07-.57,2.22-.95,3.82-1.1,4.76-.15.99-.21,1.73-.12,2.19-.26.69-.44,1.2-.55,1.61-.1.41-.08.91.05,1.43-.4.23-.53.54-.42.87.11.36.13.89.06,1.63-.03.37-.16.75-.34,1.17-.2.41-.35.92-.4,1.5-.09.6-.18,1.31-.29,2.16-.97.27-1.91.51-2.8.65-.9.13-1.83.34-2.8.61-.98.28-2.1.73-3.41,1.3-.72.52-1.44,1.01-2.2,1.47-.75.46-1.42,1.15-1.97,2.06-.56.91-.78,1.86-.59,2.85.3.45.57.86.74,1.25s.38.7.63.88c.25.22.71.38,1.38.53.42.67,1,1,1.74,1.01,1.45.09,2.81.05,4.05-.11,1.23-.16,2.3-.68,3.25-1.52.95-.81,1.59-1.46,1.94-1.96.33-.36.69-.98,1.08-1.88.38-.87.91-2.35,1.6-4.4,1.06-.02,1.95-.12,2.64-.27.45.3,1.06.22,1.85-.25.88.07,1.7.01,2.38-.11.69-.12,1.27-.1,1.69.07.39.2,1,.19,1.8,0,.64.08,1.22.07,1.77-.07.65-.05,1.22-.03,1.76.06.53.09,1.01.13,1.48.16s.85-.07,1.14-.22c.28-.16.54-.41.81-.77.27-.35.31-.79.11-1.28-.19-.48-.37-.84-.52-1.03s-.41-.37-.73-.54c-.36-.18-.93-.2-1.76-.1-1.33.07-3.34.22-6.04.43-2.7.24-5.23.5-7.63.78,0-.73.08-1.31.29-1.69.16-.35.23-.75.17-1.22.24-.41.32-.89.23-1.45.13-.68.28-1.26.45-1.67.17-.42.2-.75.13-1.05-.08-.29-.05-.66.09-1.07.14-.42.18-.85.16-1.39.27-.45.39-1,.37-1.6.39-.56.52-1.24.38-1.96.03-.41.19-.99.46-1.74.27-.76.54-1.55.81-2.37,1.53-.35,2.89-.49,4.15-.45,1.21.07,2.02.08,2.43.04.38-.02.68.05.94.17.23.11.85-.07,1.88-.62.8-.56,1.22-1.09,1.19-1.59-.02-.5-.08-.96-.18-1.36-.1-.39-.43-.57-.97-.59-.54.01-1.12.08-1.74.2-.91-.06-1.73-.04-2.48.02-.76.09-2.12.23-4.18.42.13-1.01.22-1.72.26-2.12.03-.41-.24-.79-.75-1.15-.68-.38-1.25-.47-1.74-.27-.5.24-.93.54-1.3.94-.38.4-.7,1.39-.94,3.01-2.37.35-4.57.65-6.56.94-2.03.29-3.64.51-4.84.67-1.24.16-2.34.38-3.31.59-.97.24-1.87.48-2.64.74-.81.26-1.67.79-2.58,1.53-.46.61-.62,1.29-.45,2.01.14.72.54,1.23,1.16,1.48s1.23.27,1.79.1c.56-.18,1.08-.75,1.54-1.73,1.14-.55,2.15-.93,2.98-1.13Z"/>
          <path class="cls-2" d="M311.98,149.5974c.28-1.62.56-3.25.8-4.84.92-.07,1.57-.08,1.9-.04.34.04.72-.06,1.14-.26.39-.16.83-.16,1.32.07,1.02-.01,1.62.07,1.81.29.18.26.39.47.64.72s.75.35,1.44.29c.68-.02,1.25-.33,1.64-.89.38-.57.6-1.12.58-1.62-.03-.46-.19-.98-.41-1.5-.23-.52-.56-1.03-.92-1.54-.4-.5-.92-.69-1.57-.61-.66.08-1.44.11-2.32.11-1.1.22-1.9.35-2.44.42-.56.11-1.31.17-2.26.24.05-.67.11-1.31.23-1.89.08-.54.19-1.38.35-2.5.48-1.54.8-2.5.9-2.84.09-.34.13-.74.07-1.17-.07-.4-.1-.83-.07-1.24.01-.4-.16-.82-.46-1.26-.31-.38-.87-.54-1.72-.47-.9.2-1.57.78-2,1.82-.11.51-.11.95,0,1.27.1.36.23.85.38,1.48-.1,1.14-.21,1.98-.3,2.56-.12.58-.17,1.18-.16,1.81-.02.64-.17,1.62-.49,2.98-1.78.54-3.13.88-4.1,1.05-.96.18-1.79.37-2.45.56-.7.22-1.33.37-1.95.48-.62.12-1.24.26-1.8.44l-2.25.58c-.8.19-1.4.84-1.76,1.87-.33.69-.25,1.35.3,1.95.53.59,1.05.85,1.53.78s.93-.17,1.35-.34c.39-.16,1.03-.51,1.89-1.08,1.02-.01,1.72-.26,2.1-.69.67.11,1.32.03,1.96-.29.64-.31,1.09-.45,1.4-.47.3.01.78-.06,1.4-.21.7-.15,1.31-.23,1.85-.21-.06,1.54-.26,3.43-.62,5.6-.4,2.2-.66,3.99-.81,5.34-1.31.3-3.46.83-6.45,1.6-2.98.76-5.24,1.4-6.74,1.92-1.54.55-2.88,1.05-4.03,1.48-1.25.66-1.98,1.28-2.17,1.9s-.07,1.14.38,1.51c.44.4.89.67,1.35.8.43.17,1.01.09,1.78-.17.91-.67,1.42-1.11,1.57-1.33.16-.21.37-.36.72-.45.35-.1.67-.22.95-.38.29-.15.67-.25,1.08-.28s.84-.3,1.29-.8c.61-.08,1.48-.28,2.66-.64.57-.24.93-.47,1.15-.69.19-.21.5-.24.96-.14.47.1.74.08.89-.07.15-.14.4-.26.74-.29.34-.02.79-.16,1.32-.43.53-.24,1.27-.47,2.16-.6-.04,1.27-.32,2.46-.85,3.54-.98-.06-1.79.27-2.43.99-.67.72-1.17,1.32-1.55,1.79-.32.56-.58.88-.8.99-.21.12-.44.47-.7,1.09-.91.27-1.56.72-1.95,1.36-.75.39-1.19.76-1.29,1.1-.09.34-.51.8-1.2,1.33-.5.3-.84.76-1.11,1.45-.7.32-1.4.88-2.08,1.73-.63.25-1.25.73-1.79,1.41-1.46,1.25-2.49,2.09-3.07,2.54-.58.48-1.05.82-1.41.98-.35.16-.68.45-1.02.81-1.11.35-1.79.67-2.02,1.02-.27.36-.63.65-1.09.82-.45.17-.79.5-.96.91-.17.45-.29,1.03-.29,1.73-.02.7.46,1,1.45.92.53.13,1.01.09,1.43-.07.39-.17.71-.36.97-.58.22-.18.47-.37.76-.59l1.12-.82c.51-.38.95-.74,1.39-1.18.41-.4,1.92-1.75,4.5-4.05.81-.73,1.51-1.36,2.1-1.94s1.62-1.52,3.17-2.91c1.51-1.35,2.73-2.48,3.65-3.36.89-.87,2.19-2.1,3.89-3.7-.33,2.16-.71,4.63-1.16,7.44-.49,2.84-1.2,6.31-2.17,10.42-1.39.01-2.2.31-2.38.89-.19.61-.34,1.13-.38,1.6-.08.47-.01.9.22,1.32.14.79.26,1.35.43,1.74.14.35.48.66,1.03.99.55.25,1.13.21,1.7-.07.57-.34.96-.84,1.15-1.49.45-.5.7-.99.74-1.53.05-.53.05-.97.01-1.3-.03-.33.07-.77.36-1.33.25-.56.35-1.33.24-2.33.05-.67.2-1.21.45-1.7.24-.45.27-1.09.1-1.95.35-.83.65-2.39.92-4.68.26-1.82.6-3.79.99-5.92.18.28.46.63.83,1.04.37.4,1.11,1.25,2.26,2.5,1.11,1.25,2.47,2.38,4.01,3.36,1.65.95,3.2,1.73,4.64,2.42,1.43.69,2.61,1.17,3.53,1.44.93.26,1.73.46,2.42.65.5.09,1.23.34,2.14.73,1.2.25,2.02.25,2.44.02.43-.2.77-.6,1.02-1.15s.29-1.03.19-1.42c-.1-.36-.6-.56-1.44-.62-.33-.45-.93-.63-1.78-.54-.86-.26-1.74-.33-2.6-.16-.55-.3-.94-.5-1.17-.58-.26-.08-.77-.14-1.51-.19-1.85-.59-3.16-1.09-4.01-1.46-.85-.34-1.97-1.05-3.4-2.15-1.44-1.06-2.67-2.5-3.73-4.36-.45-.96-.84-1.64-1.11-2.05-.27-.38-.83-.97-1.67-1.78.03-1.13.15-2.08.28-2.82.13-.75.29-1.76.41-3.11,1.27-.23,2.31-.48,3.11-.74.64.05,1.18.11,1.62.14.4.04.78.01,1.1-.15s.63-.21.9-.23c.27.01.95-.04,1.98-.19.63-.18,1.04-.25,1.27-.13.19.12.64.02,1.28-.3.93.2,1.76.1,2.46-.26.74.08,1.46.03,2.16-.16,1.12.31,1.93.42,2.41.28.46-.13.87-.23,1.29-.33.38-.1.67-.29.9-.64.2-.35.22-.92.01-1.7-.2-.79-.57-1.2-1.14-1.22-.58-.02-1.05-.05-1.43-.02-.41.03-1.37.2-2.93.52-1.23.16-2.36.28-3.36.43-.99.14-4.67.72-11,1.74.23-2.29.51-4.25.82-5.91ZM263.55,171.3274c-.19-.92-.27-1.92-.21-2.99.02-1.07.12-2.95.26-5.7s.67-5.74,1.57-8.98c.27-.75.51-1.28.81-1.57.26-.25.4-.66.42-1.26-.02-.57-.22-.99-.64-1.26s-.85-.37-1.33-.33c-.48.07-1.08.38-1.81.94-.26.72-.48,1.57-.59,2.55-.16,1.02-.35,2-.57,2.95-.3,2.63-.54,4.62-.72,5.94s-.36,2.13-.46,2.47c-.09.35-.16.72-.13,1.19.02.46-.02.93-.1,1.47-.15.98-.14,1.99.11,3-.12.58-.11.95.01,1.14.11.19.14.62.13,1.22-.06.64.14,1.4.61,2.26.47.87.91,1.67,1.39,2.37.57.42.89.7,1.01.89.11.19.4.44.89.67s1.06.22,1.73-.03c.63-.25,1.11-.72,1.38-1.45.05-.53-.02-.96-.16-1.29-.14-.32-.56-.59-1.25-.8-.08-.2-.5-.53-1.27-1.01-.52-.66-.89-1.47-1.08-2.39ZM280.75,168.9074c.34-.4.65-.79.92-1.18.23-.35.73-.92,1.4-1.67.31-.43.66-.92,1.02-1.52.35-.56.83-1.4,1.43-2.48.61-1.05,1.06-1.99,1.36-2.75.31-.75.61-1.45.89-2,.25-.56.43-1,.46-1.37s-.05-.94-.19-1.73c-.17-.75-.49-1.33-1-1.69s-1.11-.52-1.75-.54c-.61-.05-1.25-.07-1.86-.09-.65.02-1.15.02-1.56.02s-.8.2-1.14.56c-.39-.17-.83-.14-1.32.03-.49.21-.91.34-1.19.36-.27.05-.58.08-.88.07-.31.02-.9.2-1.79.6-1.03.25-1.73.47-2.05.63-.85.36-1.7.76-2.48,1.16-.3.02-.58.11-.86.23-.29.12-.79.46-1.59,1.02-1.03.59-1.72,1.14-2.08,1.67-.35.53-.43,1.1-.28,1.69.15.62.46,1,.96,1.1.49.13,1,.12,1.49-.02.49-.13.89-.43,1.19-.86.28-.42.93-.94,1.97-1.59,2.18-1.16,4.43-2.07,6.79-2.72s3.92-.97,4.69-.93c.78.04,1.24.21,1.38.53.11.33.07.8-.12,1.41-.48,1.18-.92,2.35-1.36,3.48-.51.41-.82.8-.92,1.17-.1.38-.29.66-.55.88-.25.22-.5.68-.76,1.36-.57.35-.95.71-1.11,1.09-.18.42-.52.91-.98,1.51-.5.64-1.17,1.33-2.02,2.1-.88.77-1.69,1.5-2.5,2.19-.6.25-1.16.46-1.71.57s-1.03.18-1.51.18c-.47.01-1,.21-1.58.66-.36.23-.66.55-.86.93-.24.42-.21.86.02,1.31s.51.76.84.9c.32.18.69.25,1.13.21.41.01.85-.03,1.34-.13,2.56-.67,4.91-1.18,7.05-1.55,2.13-.36,3.37-.59,3.76-.68.34-.1.79-.2,1.35-.34.55-.14,1.29-.4,2.27-.74.77-.33,1.25-.8,1.48-1.42.18-.58.16-1.08-.07-1.5-.24-.38-.74-.51-1.43-.39-1.89.68-3.15,1.08-3.7,1.18-.58.12-1.65.3-3.17.55l1.18-1.46Z"/>
          <path class="cls-2" d="M362.74,166.8974c-.52.5-1.05,1.11-1.65,1.83-.31.42-.68.82-1.12,1.12-.76.99-1.26,1.6-1.48,1.82-.26.25-.81.79-1.64,1.66-.39,1-.55,1.68-.48,2.01.08.33.14.72.18,1.12.03.43.45.67,1.29.74s1.54-.19,2.11-.83c.56-.61,1.01-1.48,1.31-2.64.5-.71.8-1.4.92-2.01.67-.66,1.11-1.06,1.37-1.28.22-.18.43-.6.62-1.21.58-.45,1.02-.82,1.31-1.11.27-.28.65-.75,1.1-1.32.66-.55,1.22-1.13,1.68-1.73.91-.74,1.54-1.36,1.85-1.81.31-.43.72-.83,1.15-1.13.44-.3.9-.9,1.38-1.81,4.69-4.3,7.56-6.89,8.62-7.74,1.02-.82,1.89-1.49,2.54-1.94s1.41-1.01,2.29-1.74c.41-.1.88-.41,1.43-.85s.95-.81,1.18-1.13c.23-.31.32-.89.32-1.69s-.44-1.17-1.29-1.1c-.47-.03-.96.14-1.47.44-.5.31-.96.58-1.39.81-1.28,1.07-2.53,2.2-3.72,3.39-1.19,1.2-2.48,2.33-3.83,3.44-.3.39-.68.79-1.12,1.15-.47.38-.81.74-1.01,1.08-.23.36-.75.83-1.59,1.5-.87.67-2.1,1.9-3.71,3.69-.65.45-1.21,1-1.6,1.63-.72.45-1.35,1.07-1.92,1.78-.3.36-.76.9-1.37,1.68-1,.94-1.74,1.67-2.26,2.18ZM397.4,163.0274c.38-.89.61-1.55.69-2.02.07-.47.14-.91.18-1.35.04-.4-.14-1.09-.53-2.03-.4-.91-.99-1.56-1.8-1.9-.86-.34-1.69-.54-2.49-.61-.85-.07-2.35.04-4.54.34-2.2.31-3.65.62-4.43.95-.77.32-1.54.58-2.31.81-.8.26-1.51.58-2.16,1.03-.58.45-.95.88-1.12,1.22-.17.35-.27.76-.27,1.16-.01.44.35,1.01,1.04,1.69.71.35,1.35.4,1.85.09.5-.27,1.13-.82,1.81-1.64.66-.18,1.12-.45,1.39-.81.24-.35.8-.59,1.63-.79s1.67-.43,2.57-.7c.91-.27,1.8-.34,2.74-.27.94.06,1.5.25,1.68.53.22.29.36.61.43.94.07.36.1.8.05,1.33-.18.95-.44,1.91-.8,2.94s-.8,2.17-1.31,3.41c-.55,1.24-1.57,3.19-3.05,5.78-.46.97-1.05,1.88-1.77,2.78-.65.81-1.37,1.64-2.12,2.5s-1.95,1.75-3.52,2.67c-.86.54-1.49.69-1.81.51-.36-.17-.73-.55-1.12-1.18-.72-1.05-1.17-1.72-1.35-2.04-.17-.32-.43-.8-.71-1.48l-1.68-4.08c-.19-.92-.45-1.44-.78-1.55s-.85-.03-1.61.19c-.77.23-1.25.67-1.44,1.32-.23.65-.25,1.25-.03,1.84.22.58.52,1.09.96,1.49.19.56.67,1.26,1.41,2.07-.04.47.11.76.43.9.33.18.51.43.61.82.1.4.3.81.64,1.22.89,1.47,1.53,2.26,1.98,2.49.43.2.88.4,1.41.63.53.16,1.1.21,1.78.16.69-.12,1.36-.44,2.02-.95,1.02-.08,1.84-.51,2.48-1.26.36-.27.66-.59.97-.95.3-.35.63-.65,1.05-.85.39-.16.69-.48.86-.9.17-.41.44-.77.81-1.1s.71-.69,1.01-1.11c.31-.39.73-.99,1.28-1.77.91-1.17,1.49-2.29,1.75-3.37.38-.43.72-.86,1.03-1.35.32-.5.8-1.3,1.51-2.46.68-1.15,1.24-2.17,1.69-3,.29-.63.63-1.39,1.01-2.29ZM391.67,128.5474c.22-.65.42-1.3.61-1.98.2-.69.32-1.37.38-2.04s.08-1.27.09-1.78c-.02-.5-.19-.92-.5-1.26-.34-.34-.91-.43-1.67-.31-.92.07-1.49.35-1.73.77-.24.45-.38.9-.42,1.37-.03.33.01.67.18.99.15.32.21.78.22,1.38-.02.61-.29,1.73-.76,3.3-.51,1.58-1.06,3.13-1.63,4.61-1.02,1.28-1.68,2.16-1.96,2.65s-.38.94-.35,1.37c.02.46.25.91.69,1.35.44.43.86.6,1.28.5s.84-.33,1.28-.7.78-.73,1.01-1.08c.24-.35.54-1.11.95-2.28.41-1.26.78-2.3,1.08-3.12.28-.79.54-1.41.75-1.9.08-.54.23-1.15.5-1.84ZM366.2,147.5774c.72-.15,1.35-.4,1.89-.74.98-.35,2.1-.7,3.32-1.09,1.19-.4,5.67-1.24,13.42-2.57,7.74-1.33,14.63-1.73,20.62-1.18-.36.59-.54,1.11-.51,1.54-.01.47.31.75.94.9s1.38.13,2.28-.08c.49-.17,1.95-.58,4.3-1.16.91-.27,1.38-.64,1.39-1.15-.02-.49-.08-.99-.24-1.51-.16-.53-.5-.83-.97-.93-.46-.1-1.24-.21-2.27-.4-5.8-.39-13.19-.02-22.24,1.07-9.05,1.13-14.94,2.19-17.67,3.13-1.34.17-2.2.34-2.56.53-.39.23-.77.33-1.15.36-.41.03-1.07.28-1.99.69-.56-.16-1.03.11-1.36.77-.68.05-1.23.16-1.65.29s-.95.41-1.59.79c-.63.18-1.48.58-2.51,1.16-1.04.58-1.63,1.16-1.78,1.74-.16.62-.1,1.11.21,1.49.3.41.82.71,1.55.89.73.17,1.48.05,2.23-.34s1.17-.93,1.23-1.63c1.63-1.27,3.34-2.13,5.11-2.57Z"/>
          <path class="cls-2" d="M441.67,137.8474c1.51-.95,2.85-1.62,3.98-2.04,1.12-.42,2.79-.92,4.94-1.49,2.15-.56,5.51-1.32,10.04-2.27,4.39-1.01,9.68-1.81,15.84-2.42-.04.87-.14,1.65-.27,2.33s-.42,1.74-.82,3.17c-1.3.07-2.22.2-2.78.38-1.31.2-2.21.4-2.73.61-.53.24-1.06.42-1.58.59-.53.17-1.03.51-1.55,1.05-.65.39-1.13.89-1.42,1.52-.72.39-1.22.72-1.52,1.08s-.55.81-.66,1.36c-.65.75-1.12,1.49-1.42,2.21-.24.49-.52.94-.8,1.43s-.42.9-.38,1.27c.03.36-.07.77-.28,1.26-.25.48-.32.96-.26,1.42s-.02.97-.2,1.45c.06.87.2,1.62.41,2.31-.16.61-.13,1.05.06,1.26.18.26.36.55.53.93l.51,1.17c.17.39.53.86,1.1,1.35.82.27,1.53.38,2.14.37.57.02,1.19-.09,1.82-.34.63-.22,1.17-.56,1.62-1.06.9-.54,1.53-1.12,1.91-1.68l2.61-3.85c-.17,1.19-.43,2.28-.86,3.24-.42.97-.68,2.03-.85,3.14-.37.73-.59,1.32-.7,1.8-.11.47-.83,2.13-2.2,4.98-1.37,2.84-2.48,5.07-3.36,6.64s-1.52,2.65-1.98,3.29c-.47.64-1.26,2-2.33,4.09-.46.97-.65,1.69-.62,2.09.03.39.21.72.48,1.06.28.28.53.53.79.71.22.18.67.12,1.3-.13.63-.29,1.07-.65,1.31-1.07.25-.46.49-.98.75-1.6.11-.88.33-1.46.63-1.72.29-.29.4-.7.25-1.29.44-1.17.74-1.92.83-2.2.09-.27.37-.66.75-1.16.31-.49.53-1.04.65-1.59.11-.54.28-.92.51-1.2.22-.26.35-.57.42-.97.07-.38.17-.72.33-1.03s.41-.83.78-1.56c.66-.52.99-1.18,1.02-1.99.15-.48.35-.86.57-1.08s.34-.73.35-1.59c.71-1.2,1.09-2.06,1.2-2.57.12-.51.35-1.2.72-2.03.38-.83.77-1.83,1.22-3.06.45-1.21.84-2.64,1.26-4.35.26-.65.4-1.46.45-2.44.17-.34.35-.83.47-1.44.12-.57.3-1.12.48-1.6.18-.49.34-1.13.44-1.98.08-.84.18-1.58.26-2.19.09-.61.01-1.3-.22-2.15.71-2.3,1.14-3.7,1.26-4.24.11-.55.23-1.12.36-1.8s.38-1.7.78-3.1c4.18-.12,6.69-.15,7.5-.11.87.13,1.88.26,3.03.3,1.08.05,2.45.25,4.05.59.78.41,1.37.67,1.76.84s.76.24,1.17.17c.37-.02.78-.02,1.25.04.47.07.85-.06,1.22-.39s.58-.75.69-1.29c.08-.54-.08-1.07-.44-1.57-.39-.51-.91-.87-1.53-1.12-.84-.4-1.75-.47-2.72-.26-1.23.03-2.44-.01-3.62-.09-1.22-.04-2.38.05-3.49.27-1.21-.11-2.16-.1-2.84-.02-.71-.08-1.31-.17-1.85-.22-.54-.06-.98,0-1.4.17-.43.2-1.28.2-2.54-.04.55-2.48.93-4.05,1.09-4.73.16-.64.26-1.49.32-2.56.03-1.07-.25-1.72-.91-1.97-.6-.16-1.2-.18-1.82-.06-.62.11-1.15.72-1.59,1.82-.17.42-.21.86-.18,1.32.03.47.06.9.02,1.3-.04.41-.04.81.07,1.17.1.39.01,1.03-.21,1.95-.05.61-.09,1.48-.12,2.55-4.28.5-9.33,1.22-15.18,2.2-5.85.99-11,2.12-15.46,3.39-1.27.57-2.39.95-3.36,1.2-.97.27-1.56.38-1.83.4-.27.03-.67.32-1.19.83-.83.13-1.5.48-2.03,1.06-.51.04-1,.24-1.5.55-.5.3-.93.54-1.35.67-.56.58-.87,1.37-.95,2.31-.11.55-.02,1.01.25,1.39.27.41.66.68,1.16.78.5.09,1.42-.41,2.75-1.58.74-.73,1.9-1.59,3.44-2.54ZM464.85,145.3574c.35-.89.76-1.66,1.3-2.37.77-1.06,1.44-1.78,1.95-2.22.51-.41,1.02-.72,1.5-.89.49-.17.95-.3,1.43-.34.44-.03.95-.07,1.54-.18.55-.11,1.07.15,1.53.75-.83,1.26-1.33,2-1.55,2.15-.22.19-.32.56-.27,1.16-.63.65-.85,1.2-.69,1.62-.34.8-.56,1.38-.69,1.73-.13.34-.31.86-.51,1.54-.4.73-.83,1.4-1.29,2.04-.76,1.66-1.47,2.75-2.12,3.27-.66.52-1.22.8-1.71.9-.48.1-.81.03-1.03-.26-.24-.28-.42-.63-.58-1.05-.17-.39-.26-.92-.27-1.59.05-1.41.12-2.51.15-3.32.54-1.07.96-2.04,1.31-2.94Z"/>
          <path class="cls-2" d="M521.54,164.3074c-.06-.83.2-1.49.78-2,.59-.52,1.24-1,1.9-1.52.76-.59,1.27-.9,1.46-.85.2.06.6-.21,1.19-.79.49-.1,1.01-.24,1.6-.39.59-.14,1.07-.21,1.44-.18.33.05.64-.01.89-.16.22-.16.53-.21.9-.17.34.04.75-.06,1.25-.3.83-.2,1.48-.28,1.98-.22.51.06.95.03,1.3-.07.34-.09.92-.1,1.69.04-.26.59-.53,1.05-.77,1.4-.27.35-.65.92-1.16,1.69-1.84,1.65-3.79,3.03-5.83,4.16-2.03,1.16-4.4,1.51-7.15,1.11-.92-.33-1.41-.89-1.47-1.75ZM548.26,157.7374c.2.06.56.16,1.06.32.49.2.97.16,1.4-.14.43-.26.83-.63,1.25-1.06.37-.43.38-.9-.05-1.47-.42-.53-.97-.89-1.67-1.04s-1.41-.19-2.15-.2c-1.44.21-2.47.29-3.04.23-.61-.05-1.52-.05-2.74-.02.13-.82.22-1.42.26-1.89.04-.44-.05-.94-.2-1.53-.19-.55-.51-1.23-.98-2.06-.44-.37-.65-.69-.66-.95-.01-.27-.44-.77-1.29-1.47-.24-.39-.51-.77-.88-1.21-.37-.4-.72-.74-1.03-.99-.32-.24-.57-.49-.82-.74-.25-.24-.74-.44-1.54-.58-.27-.45-.62-.72-1.02-.82-.43-.1-.82-.24-1.21-.45-.39-.2-.99-.32-1.8-.36,2.8-1.85,4.68-3.1,5.65-3.77.97-.65,1.77-1.21,2.35-1.65.58-.45,2.02-1.4,4.26-2.9,1.04-.72,1.74-1.34,2.09-1.84.35-.49.64-1.15.91-1.9.24-.76.33-1.37.26-1.76-.07-.4-.16-.96-.29-1.72-.27-.78-.66-1.35-1.21-1.74-.58-.36-1.06-.66-1.45-.83-.43-.16-.92-.36-1.44-.62-.55-.26-1.29-.34-2.25-.23-.52-.29-1.01-.46-1.46-.42-.44.03-.92.07-1.46.04-.55-.29-1.08-.45-1.58-.48-1.32.3-2.25.44-2.85.39-.61-.06-1.5.08-2.62.43-1.11.36-2.06.73-2.78,1.18-.64.39-1.27.9-1.86,1.48-.6.62-.95,1.21-1.07,1.82-.13.62,0,1.07.42,1.31.39.24.78.41,1.18.48.37.07.79-.1,1.27-.47.43-.37.84-.76,1.15-1.19.31-.42.96-.84,1.91-1.25,1.36-.5,2.81-.72,4.29-.63,1.49.09,2.56.17,3.17.23.61.05,1.17.17,1.7.37.52.22,1.08.38,1.61.54.86.3,1.4.63,1.57,1.02s.09.96-.24,1.65c-.25.56-.6,1.02-.97,1.38-.41.37-.89.84-1.44,1.38-.56.55-1.18.99-1.82,1.38-.68.38-1.12.75-1.28,1.03-.64.32-1.24.67-1.82,1.11-.59.45-1.07.88-1.5,1.25-.64.32-1.13.46-1.43.45-.31.02-.74.22-1.25.66-.7.25-1.41.58-2.05.96-.68.39-1.18.66-1.53.82-.36.19-.68.45-1.05.78s-.69.86-.99,1.58-.35,1.26-.11,1.65c.24.38.58.72,1.1.98s1.02.39,1.56.38c.54.03,1.12.02,1.73.04.8.14,1.57.31,2.33.45.73.18,1.52.45,2.34.79.78.38,1.46.79,2,1.25.5.47.95,1.1,1.32,1.94.33.84.53,1.73.58,2.7.05.96.04,1.87-.04,2.74-2.03.36-4.09.65-6.18.84-2.12.23-4.23.66-6.32,1.29-2.12.63-3.85,1.43-5.22,2.37-1.08.69-1.82,1.38-2.18,2.01-.36.66-.65,1.25-.84,1.8-.18.55-.25,1.39-.18,2.45.23,1.32.75,2.32,1.57,3.06.81.74,1.69,1.14,2.64,1.13.64-.25,1.08-.32,1.42-.24.33.07.73.14,1.2.21.47.06.91.03,1.3-.1.38-.13.74-.33,1.06-.55.33-.23.67-.29,1.08-.25.36.04.82-.13,1.4-.54.9-.27,1.86-.75,2.87-1.43.91-.3,1.66-.69,2.17-1.13s.92-.81,1.15-1.13.48-.5.8-.59c.31-.09.61-.45.94-1.15.59-.47,1.21-.99,1.87-1.51.65-.52,1.13-.95,1.39-1.24.23-.29.63-.99,1.13-2.03,1.43-.04,2.38-.05,2.89-.08.51-.01,1.4-.08,2.63-.17.84.1,1.37.16,1.61.17Z"/>
          <path class="cls-2" d="M585.38,175.1174c.36-.2.79-.47,1.22-.77.44-.36.61-.74.55-1.21-.07-.46-.19-.99-.37-1.57-.16-.56-.54-.83-1.16-.78-.61.01-1.1-.22-1.43-.66-.36-.51-.61-1.19-.77-2.08-.21-.65-.48-1.1-.8-1.31-.35-.24-.71-.41-1.11-.45-.41-.04-.82-.01-1.2.09-.41.1-.78.4-1.13.89-.34.46-.49.94-.43,1.4.06.47.19.99.34,1.58.4.84.85,1.57,1.32,2.31.49.66,1.02,1.19,1.56,1.58.51.36,1.09.72,1.74,1.04.74.14,1.32.1,1.67-.06ZM603.13,104.0374c-.45-.3-1.05-.39-1.87-.29-.77.26-1.42.71-1.95,1.29-.83,1-1.55,2.22-2.18,3.67-.64,1.46-1.61,4.04-2.91,7.68-1.31,3.67-2.87,8.31-4.68,13.89-1.81,5.62-3.4,10.62-4.74,15-1.36,4.39-2.44,8.91-3.25,13.52-.08.98,0,1.6.31,1.88.32.28.75.34,1.3.24.56-.11,1.02-.35,1.38-.65.37-.29.64-.68.75-1.16.1-.44.23-1.15.39-2.13.14-.41.17-.78.07-1.18-.11-.36-.09-.96.06-1.84.21-1.65.37-2.7.47-3.11.11-.41.23-1.09.42-2.07.21-.82.36-1.73.41-2.74.5-1.07.73-1.79.7-2.16-.04-.33.09-.67.39-1.03.31-.36.4-.67.36-1s.11-.84.48-1.54c.23-.35.43-.73.64-1.15.17-.41.27-.79.3-1.16,0-.33.15-.91.46-1.74.27-.79.51-1.51.67-2.19.48-.87.93-2.11,1.38-3.75.44-1.6.76-2.56.92-2.84s.27-.69.31-1.19c.25-.53.42-.91.58-1.19.16-.24.18-.51.14-.81s.06-.64.33-1.06c.24-.39.52-1.34.83-2.87.17-.41.4-.73.63-.98.22-.26.32-.56.31-.9.52-.91.87-1.77,1.04-2.58.19-.55.43-.97.69-1.29.23-.32.47-.67.7-1.03.2-.35.46-.93.81-1.83.39-.66.87-1.03,1.35-1.11.48-.03.87-.33,1.19-.82.58-.85.93-1.38,1.09-1.62.15-.22.27-.76.34-1.57.03-1.13-.16-2.02-.62-2.59Z"/>
        </g>
      </g>
    </g>
  </g>
</svg>