<?xml version="1.0" encoding="UTF-8"?>
<svg xmlns="http://www.w3.org/2000/svg" version="1.1" viewBox="0 0 640 640">
  <defs>
    <style>
      .cls-1 {
        fill: #d30000;
        fill-rule: evenodd;
      }
    </style>
  </defs>
  <!-- Generator: Adobe Illustrator 28.7.1, SVG Export Plug-In . SVG Version: 1.2.0 Build 142)  -->
  <g>
    <g id="_レイヤー_1" data-name="レイヤー_1">
      <path class="cls-1" d="M218.65,558.93c-11.48-19.52-32.12-31.43-54.76-31.62-40.54-.33-79.72-21.33-101.33-58.76-21.61-37.43-20.21-81.86-.23-117.13,11.17-19.71,11.17-43.53,0-63.24-19.98-35.27-21.38-79.7.23-117.13,21.61-37.43,60.79-58.44,101.32-58.76,22.65-.19,43.29-12.1,54.77-31.62,20.55-34.95,58.33-58.37,101.55-58.37s81,23.42,101.55,58.37c11.49,19.52,32.12,31.43,54.77,31.62,40.54.32,79.71,21.33,101.33,58.76,21.6,37.43,20.21,81.86.22,117.13-11.16,19.7-11.16,43.53,0,63.24,19.99,35.27,21.38,79.7-.22,117.13-21.62,37.43-60.79,58.43-101.33,58.76-22.65.19-43.28,12.1-54.76,31.62-20.56,34.94-58.34,58.37-101.56,58.37s-81-23.43-101.55-58.37ZM640,320C640,143.27,496.73,0,320,0S0,143.27,0,320s143.27,320,320,320,320-143.27,320-320Z"/>
    </g>
  </g>
</svg>