<?xml version="1.0" encoding="UTF-8"?>
<svg xmlns="http://www.w3.org/2000/svg" version="1.1" viewBox="0 0 798.0974 840.9999">
  <defs>
    <style>
      .cls-1 {
        fill: #d40108;
      }

      .cls-1, .cls-2, .cls-3, .cls-4, .cls-5, .cls-6, .cls-7, .cls-8, .cls-9, .cls-10 {
        fill-rule: evenodd;
      }

      .cls-2 {
        stroke: #ededed;
      }

      .cls-2, .cls-3, .cls-9 {
        stroke-linecap: round;
        stroke-linejoin: round;
        stroke-width: 3px;
      }

      .cls-3 {
        fill: #fff4ff;
      }

      .cls-3, .cls-9 {
        stroke: #fff;
      }

      .cls-4 {
        fill: #3c3e3d;
      }

      .cls-5, .cls-9 {
        fill: #ebebeb;
      }

      .cls-6 {
        fill: #de000f;
      }

      .cls-7 {
        fill: #7d0000;
        opacity: .5;
      }

      .cls-10 {
        fill: #ededed;
      }
    </style>
  </defs>
  <!-- Generator: Adobe Illustrator 28.7.1, SVG Export Plug-In . SVG Version: 1.2.0 Build 142)  -->
  <g>
    <g id="_レイヤー_1" data-name="レイヤー_1">
      <g>
        <path class="cls-7" d="M768.6516,78.5299s36.96,6.31,25.87,80.68c-7.32,49.09-31.42,108.05-54.33,151.94-3.04,5.83,24.33,32.56,30.61,54.43,7.52,26.15-10.66,54.46-13.94,59.7-4.64,7.4-52.41-54.97-56.2-50.1-25.6,32.9-69.2,100.08-87.39,118.85-18.18,18.77-31.72,27.45-36.88,36.23-5.17,8.78-.61,25.04-9.82,34.39-5.13,5.21-16.22-11.56-21.32-6.15-7.07,7.5-57.78,50.01-117.74,80.12-59.94,30.09-117.69,16.18-145.95,49.15-28.26,32.96-24.09,59.64-32.95,77.87-8.85,18.24-16.1,37.59-27.11,27.53-11-10.06-3.84-38.72-22.68-46.49-18.83-7.78-79.35,3.39-79.35,3.39,0,0,38.15-55.62,70.03-71.83,31.88-16.23,109.61-25.3,154.03-68.6,44.43-43.3,209.21-137.4,242.96-203.7,33.73-66.28,100.85-156.69,128.29-230.23,27.44-73.52,53.87-97.18,53.87-97.18Z"/>
        <path class="cls-9" d="M544.8416,499.6899c2.26-1.19-22.18,38.21-24.16,49.17-1.97,10.96-10.27,17.92-10.27,17.92l-33.1-15.69s47.72-41.01,67.53-51.4Z"/>
        <path class="cls-5" d="M713.0516,254.7399s3.29,21.65,14.21,36.55c10.91,14.9,31.21,30.63,26.93,62.35-4.27,31.72-7.03,43.99-15.45,46.16-8.43,2.18-14.02-6.04-32.15-21.29s-38.81-45.13-45.83-54.26c-7.02-9.12,12.61-44.29,27.21-53.23,14.61-8.94,25.08-16.28,25.08-16.28Z"/>
        <path class="cls-5" d="M553.7916,145.8299s-36.29-17.44-51.04-17.14c-30.94.62-101.05,19.59-98.94,32.24,3.21,19.25,32.11,25.1,51.24,31.18,22.22,7.06,28.58,16.36,46.92,23.92,18.35,7.57,29.99-13.58,38.05-32.27,10.59-24.54,29.2-30.16,13.77-37.93Z"/>
        <path class="cls-5" d="M259.0216,681.2499s-59.56,10.63-80.89,33.37c-11.56,12.32-21.65,36.5-24.22,61.98-2.58,25.49-13.43,43.17-18.57,50.22-5.15,7.05-23.47,14.18-23.47,14.18,0,0,4.03-25.48-1.82-40.13-5.85-14.64-19.87-29.86-33.37-32.17-13.51-2.32-40.58-6-58.79,6.72-10.93,7.64-17.06,21.86-17.06,21.86,0,0-6.26-31.48,15.57-58.93,21.84-27.44,67.11-57.85,101.94-63.3,34.84-5.45,86.18-12.2,140.68,6.2Z"/>
        <path class="cls-10" d="M615.6116,64.9599c-29.7,22.46-57.27,39.7-118.2,144.38-60.95,104.71-69.87,148.54-103.69,210.14-33.82,61.61-68.67,123.84-100.94,151.22-32.27,27.37-63.29,51.42-74.59,65.14-11.3,13.72-55.72,68.51-55.72,68.51,0,0,116.55-27.4,142.09-34.38,25.54-6.98,128.69-63.82,174.74-104.47s99.95-84.53,155.7-164.36c55.75-79.83,124.36-208.7,139.15-270.26,14.78-61.54,12.65-109.19-4.31-122.06-16.97-12.87-49.24-10.95-74.52,1.19-25.27,12.14-50.01,32.48-79.71,54.95Z"/>
        <path class="cls-8" d="M212.0916,692.5999c35-8.34,78.11-18.7,92.47-22.63,1.33-.36,2.87-.87,4.61-1.49.83-5.05-1.12-10.64-6.59-12.92-9.93-4.13-41.24-16.73-51.4-4.03-10.15,12.69-17.94,22.11-24.02,23.43-6.09,1.33-22.55,9.63-15.86,16.83l.79.81Z"/>
        <path class="cls-1" d="M406.5716,408.2199c-3.37,6.8-10.19,14.76-14.12,21.91-33.82,61.61-49.4,106.91-81.67,134.28-7.9,6.71-13.59,14.73-21.03,22.95-1.44,3.16-7.46,11.17-9.07,14.32-4.14,8.11-.73,19.06,1.67,25.45,2.39,6.38,12.55,6.25,30,6.93,17.47.67,15.63,11.68,24.67,7.66,9.05-4.03,19.1-7.64,25.28-14.44,6.19-6.81,18.63-7.58,33.17-10.01,14.55-2.44,28.13-15.55,33.23-22.87,5.1-7.32-4.62-20.44-28.46-21.82-23.83-1.37-16.26,12.84-29.65,22.38s-19.2-3.78-23.88-15.1c-4.68-11.31,6.69-24.64,11.36-36.38,4.68-11.75,22.78-29.01,27.16-40.37,4.39-11.36,19.58-35.58,28.7-42.41,9.13-6.84,15.63-19.7,6.78-35.34-3.85-6.81-3.89-21.78-14.14-17.14Z"/>
        <path class="cls-1" d="M570.4716,480.8199c11.31-11.63,15.05-16.32,26.71-30.23-8.29-3.36-19.17-10.12-29.64-23.72-21.09-27.37-78.82,2.53-63.36,28.83,15.46,26.32-12.4,42.05-30.8,53.73-18.4,11.67-2.2,43.41,12.11,35.04,14.32-8.37,34.29-28.52,45.05-42.84,6.01-7.98,27.79-19.27,39.93-20.81Z"/>
        <path class="cls-8" d="M616.9516,425.8599c5.99-7.84,12.01-16.07,18.05-24.72,15.94-22.83,32.94-49.67,49.42-77.8,1.48-4.92,2.41-8.16,2.41-8.16-3.82,3.76-5.48,6.47-15.71,11.54s-21.95,15.62-28.5,24.71c-4.67,6.46-8.79,22.53-21.83,35.6-9.35,9.39-7.68,27.1-3.84,38.83Z"/>
        <path class="cls-6" d="M482.6016,235.4099c-21.02,37.94-26.59,54.95-26.22,67.1-4.7,3.94-3.85,8.94-5.11,16.37-1.31,7.65,9.61,14.07,8.62,25.51-.99,11.39,3.72,21.66,15.25,32.97.77.76,1.55,1.32,2.33,1.72l-.04,1.46c-.72,18.38,14.93,3.98,22.95-4.98,8.02-8.95,27.95-46.9,25.42-34.42-2.52,12.49-9.72,30.32-13.76,52.99-4.03,22.67,16.95,3.61,30.11-5.96,13.17-9.56,27.25-13.73,50.07-19.69,22.82-5.95,22.93-55.95,4.77-57.47-18.16-1.53-5.28-3.83-16.52-10.17-7.05-3.98-33.27-16.36-38.16-31.57-.64-4.57-3.21-27.08-10.3-30.81-14.29-7.52-18,13.86-30.8-1.36-2.68-3.19-16.42-.72-18.61-1.69Z"/>
        <path class="cls-4" d="M644.2116,48.1899s5.42-.82,8.68-3.03,13.77-14.63,5.64-11.75c-8.13,2.87-20.51,8.63-14.32,14.78Z"/>
        <path class="cls-4" d="M759.3716,116.4399c-3.25,5.08-4.86,17.22-1.07,18.46,3.78,1.24,6.81-5.58,7.69-10.22s2.85-11,.03-12.82c-1.67-1.09-3.41-.51-6.65,4.58Z"/>
        <path class="cls-3" d="M354.4016,569.6499s15.53-12.42,22.99-17.8c7.46-5.39,13.42-22.91,22.56-34.25s31.94-27.81,41.44-42.32c9.51-14.52,25.44-30.67,30.74-40.87,5.3-10.19,10.62-25.6,16.95-35.31,6.33-9.7,20.69-23.55,29.2-38.82,7.96-14.28,12.26-30.45,12.26-30.45,0,0-26.3,40.52-34.77,51.86-8.47,11.35-19.37,32.2-25.13,41.93s-21.01,33.12-28.7,42.42c-7.69,9.29-30.1,30.93-38.37,38.23s-23.68,35.72-28.7,42.42c-5.02,6.7-13.61,13.74-20.47,22.96Z"/>
        <path class="cls-6" d="M674.1116,147.0999c7.65-3.32,27.43,2.18,35.47,9.74,9.66,9.07,17.1,24.43-3.45,51.67-12.14,16.11-41.19,23.26-57.14,22.74-15.95-.53-21.54,1.87-30.39,4.99s-21.33,6.61-26.96,13.11c-5.64,6.51-1.42-13.02-1.42-13.02,0,0-3.64-6.48-2.96-26.5.59-17.47-8.06-40.19-4.73-62.21,2.16-14.29,6.46-27.78,22.04-36.33,15.58-8.54,26.18-2.26,33.7,6.59,7.53,8.85,14.18,23.2,18.08,25.35,3.89,2.15,11.78,6.47,17.76,3.87Z"/>
        <path class="cls-2" d="M674.4516,281.3599c-1.14-8.22-4.99-17.66-13.66-12.64-6.25,3.61-17.64,2.54-18.76,7.16-.68,2.84-3.33,10.72-7.83,9.23-12.47-4.15-18.61,14.18,2.72,15.93,10.47.86,18.74,6.59,30.53,5.79,11.78-.8,6.28-3.56,9.42-5.5,3.13-1.95,7.11,2.98,10,1,2.89-1.97,7.19-13.82,7.19-13.82,0,0,3.22-12.56-1.51-10.79s-3.92,11.25-7.69,10.22c-3.76-1.02-8.24,9.2-10.41-6.58Z"/>
      </g>
    </g>
  </g>
</svg>