<?xml version="1.0" encoding="utf-8"?>
<!-- Generator: Adobe Illustrator 27.6.1, SVG Export Plug-In . SVG Version: 6.00 Build 0)  -->
<svg version="1.1" id="レイヤー_1" xmlns="http://www.w3.org/2000/svg" xmlns:xlink="http://www.w3.org/1999/xlink" x="0px"
	 y="0px" viewBox="0 0 400 76" style="enable-background:new 0 0 400 76;" xml:space="preserve">
<style type="text/css">
	.st0{fill-rule:evenodd;clip-rule:evenodd;fill:#F3B729;}
</style>
<g>
	<path class="st0" d="M160.5136,42.37c0.242,0,0.324,0.156,0.324,0.392c0,0.314-5.258,11.84-9.706,11.84
		c-1.456,0-2.104-0.94-2.104-2.274C149.0276,47.702,157.6016,42.37,160.5136,42.37z M177.0956,16.088
		c0.08,0.602-0.648,2.638-1.052,3.39c-0.404,0.68-10.514,14.918-12.376,17.704c-0.808,1.268-1.05,1.354-2.022,1.694
		c-8.492,3.022-15.806,8.982-15.806,15.646c0,1.996,1.258,6.388,5.454,6.388c5.094,0,6.47-2.954,13.426-17.364
		c1.374-2.824,1.538-3.134,6.552-3.134c4.286,0,9.464,1.018,14.882,3.526c4.45,2.118,4.45,2.51,4.45,3.214
		c0,0.786-1.214,2.668-2.428,4.47c-4.69,7.132-8.654,10.312-16.662,15.672c-0.162,0.082-1.536,1.026-1.536,1.106
		c0,0.236,0.566,0.236,0.646,0.236c0.648,0,4.206-0.866,8.736-3.154c9.788-4.972,13.508-10.56,15.916-14.644
		c0.25-0.392,0.502-0.94,1.174-0.94c0.84,0,3.274,1.96,3.442,2.038c5.67,4.742,6.546,5.38,8.142,5.38c0.956,0,2.95-0.876,2.95-3.028
		c0-4.078-7.256-7.764-10.422-9.408c-1.426-0.708-1.93-0.942-1.93-1.962c0-0.236,1.176-6.714,1.176-6.866
		c0.252-0.452,1.846-2.412,1.846-2.938c0-2.938-7.302-4.144-7.554-4.144c-0.336,0-0.908,0-0.908,0.452
		c0,0.302,0.488,3.616,0.488,4.218c0,0.756-0.488,7.318-1.54,7.318c-0.242,0-0.404,0-1.294-0.314
		c-4.206-1.512-10.03-2.96-15.288-3.386c-0.97-0.076-5.5,0-6.552,0c-0.242,0-0.808-0.076-0.808-0.452
		c0-0.304,6.066-10.246,11.89-15.292c4.206-3.616,4.934-4.522,4.934-6.102c0-1.226-1.214-4.96-6.552-4.96
		c-1.294,0-3.802,0.166-7.764,2.738c-4.854,3.372-5.824,3.57-8.412,3.57c-0.404,0-2.266-0.394-2.75-0.394
		c-0.486,0-0.648,0.394-0.648,0.866c0,0.236,2.266,5.834,5.258,5.834c2.104,0,5.176-2.68,6.228-3.628
		c1.294-1.54,4.692-4.256,5.742-4.256C176.7716,15.182,177.0136,15.712,177.0956,16.088z"/>
	<path class="st0" d="M275.2798,5.2919c-0.154,0.238,0,0.556,0.23,0.954c1.23,1.752,1.924,2.946,1.924,4.618
		c0,2.944-2.846,7.082-10.452,16.952c-5.87,6.766-7.09,9.152-7.09,11.302c0,1.672,0.75,2.864,3.658,5.888
		c2.202,2.548,10.578,13.134,12.96,20.136c1.628,4.696,2.096,6.21,4.52,6.21c1.642,0,3.362-1.114,3.362-3.742
		c0-5.492-10.572-17.19-17.41-24.91c-1.692-1.832-2.306-3.026-2.306-4.378c0-3.422,20.7321-24.036,20.7321-26.186
		c0-2.944-7.74-7.01-9.59-7.01C275.5878,5.1259,275.3578,5.1259,275.2798,5.2919z"/>
	<path class="st0" d="M378.948,14.364c-0.718,0-1.436,0.246-1.436,0.658c0,0.33,0.798,0.988,1.118,1.234
		c3.11,2.45,4.066,3.4,5.342,5.14c2.154,3.008,2.87,3.64,3.988,3.64c1.514,0,2.472-1.9,2.472-3.006
		C390.432,18.706,385.168,14.364,378.948,14.364z M386.762,6.7119c-0.718,0-2.87,0.332-2.87,1.072c0,0.246,0.24,0.494,1.036,0.822
		c2.552,0.904,5.742,3.042,7.018,4.524c1.516,1.892,2.392,3.044,4.146,3.044c1.356,0,1.994-1.398,1.994-2.386
		C398.086,10.744,394.578,6.7119,386.762,6.7119z M357.1799,6.7879c-0.558,0-1.116,0.316-1.116,0.868
		c0,0.078,0.876,1.972,0.956,2.128c0.878,2.05,0.878,3.706,0.878,4.968c1.214,4.02,0,23.888,0,28.462
		c0,20.736,6.378,24.994,14.99,24.994C387.88,68.2081,400,54.332,400,53.306c0-0.158-0.16-0.472-0.478-0.472
		c-0.32,0-6.22,3.626-7.416,4.258c-9.17,4.808-16.188,4.808-17.304,4.808c-9.01,0-12.12-5.124-12.12-16.556
		c0-6.704,1.196-21.92,2.152-26.178c-0.278-0.63,1.036-3.628,1.036-4.336C365.8699,13.176,361.9279,6.7879,357.1799,6.7879z"/>
	<g>
		<path class="st0" d="M46.7374,47.378c-0.084,0.17,0.086,0.594,0.516,1.102c0.342,0.426,3.944,5.596,5.23,10.682
			c0.856,3.392,1.372,5.596,4.116,5.596c1.714,0,3-1.442,3-3.814C59.5994,53.992,47.3394,46.7,46.7374,47.378z M33.9634,47.464
			c-0.172,0.254,0.514,1.778,0.6,2.118c0.17,1.018,0.342,8.816,0.342,10.174c0,1.102-0.256,6.36-0.256,7.546
			c0,6.388,3.314,7.714,16.29,7.714c16.806,0,19.12-3.686,19.12-5.596c0-0.422-0.256-0.932-1.286-2.204
			c-1.456-1.78-1.714-4.746-1.972-8.138c-0.086-0.594-0.17-1.612-0.428-1.612c-0.172,0-1.886,5.682-2.23,6.698
			c-1.458,4.664-3.172,5.766-11.404,5.766c-4.458,0-9.174-0.17-10.802-0.848c-1.888-0.762-1.888-2.544-1.888-13.734
			c0-1.018,0-1.95,0.172-2.458c0.086-0.51,1.972-2.122,1.972-2.628c0-0.85-0.942-1.104-2.74-1.696
			c-0.82-0.256-4.026-1.358-4.634-1.358C34.5634,47.208,34.1334,47.208,33.9634,47.464z M63.1134,20.248
			c-0.17,0.266,0.086,0.532,0.43,0.708c3.172,2.208,10.374,10.684,13.89,16.778c1.542,2.702,2.486,4.006,4.202,4.006
			c1.886,0,3.514-1.77,3.514-4.358c0-8.656-20.834-17.31-21.692-17.31C63.3714,20.072,63.1134,20.072,63.1134,20.248z
			 M23.5873,18.57c-0.258,0.178-0.6,2.914-0.77,3.444c-0.772,3.356-4.032,10.332-8.318,15.542c-0.772,0.972-5.144,5.768-5.144,5.954
			s0.17,0.186,0.256,0.186c1.716,0,11.234-7.022,16.892-14.352c0.944-1.148,2.4-3.002,2.744-3.356c1.458-0.884,1.8-1.236,1.8-2.12
			c0-0.794-0.6-1.236-3.258-3.088C25.8173,19.364,24.1013,18.218,23.5873,18.57z M68.5154,49.596
			c0.172,0.244,0.944,0.976,1.114,1.14c5.146,4.554,9.518,12.198,11.062,16.022c1.456,3.614,1.714,4.056,3.344,4.056
			c1.886,0,3.43-1.534,3.43-4.056c0-9.19-15.176-17.324-18.436-17.324C68.8594,49.434,68.6014,49.434,68.5154,49.596z
			 M34.1334,13.98c2.316,0,2.488,1.146,2.488,3.266c0,6.8,0,11.304-0.686,14.658c-1.202,5.566-5.66,11.14-15.52,16.796
			c-0.258,0.082-0.686,0.408-0.086,0.408c3,0,8.232-1.964,11.232-3.922c9.918-7.01,10.06-15.666,10.204-25.114
			c0.098-5.652,0.098-6.092,2.94-6.092h6.556c1.848,0,3.562,0.176,3.958,1.678c0.132,0.618,0.264,12.45,0.264,14.128
			c0,5.21,0,7.77-0.528,8.476c-0.66,0.708-2.77,1.15-4.354,1.15c-0.71,0-3.99-0.442-3.99-0.178c0,0.178,1.714,1.48,2.012,1.76
			c1.566,1.306,3.034,3.168,3.562,4.472c0.792,1.864,1.188,2.422,2.77,2.422c1.526,0,3.062-1.304,4.06-2.328
			c1.304-1.304,1.956-3.26,1.956-7.738c0-3.092-0.344-18.016-0.344-21.458c0-2.384,1.63-2.384,2.83-2.384h19.12
			c2.658,0,4.544,0,4.544-0.816c0-0.692-7.03-6.984-8.316-6.984c-0.258,0-0.43,0.084-0.6,0.17c-0.258,0.168-2.488,3.9-2.83,4.576
			c-0.858,1.356-2.058,1.356-5.488,1.356h-15.592c-3.56,0-3.958-0.846-3.958-3.05c0-2.628,0.528-3.052,1.716-3.73
			c1.188-0.764,1.452-1.018,1.452-1.526c0-1.188-0.66-1.272-3.688-1.866c-0.97-0.338-4.918-1.61-5.896-1.61
			c-0.294,0-0.686,0-0.686,0.338c0,0.508,1.078,2.798,1.272,3.392c0.49,1.61,0.688,3.476,0.688,5.85
			c0,1.864-1.372,2.202-3.234,2.202h-15.802c-4.028,0-7.544-0.084-11.746-0.252c-0.514,0-3.172-0.256-3.772-0.256
			c-0.172,0-0.258,0-0.258,0.17c0,0.086,0,0.17,0.344,0.464l1.628,1.446c0.344,0.39,0.514,0.566,0.772,0.566s1.544-0.176,1.8-0.176
			c0.858-0.088,3.344-0.264,10.89-0.264H34.1334z"/>
		<path class="st0" d="M18.5213,62.228c0.226,0.32,0.528,0.714,0.81,0.96c0.454,0.394,0.588,0.606,0.814,0.546
			c0.226-0.06,0.318-0.38,0.482-1.212c0.162-0.832-0.348-1.236-0.612-1.622c-0.136-0.198-0.216-0.446-0.26-0.636
			c0.818-1.388,1.496-2.732,1.752-3.58c0.49-1.618,0.508-2.868,0.082-3.2c-0.428-0.332-1.282-0.274-1.97,0.052
			c-0.686,0.324-1.372,0.866-2.194,1.464c-0.584,0.426-1.138,0.784-2.05,1.956c-0.19-0.092-0.624-0.294-0.904-0.38
			c-0.366-0.112-1.364-0.358-1.598-0.098c-0.232,0.26-0.186,1.382,0.188,1.732c0.326,0.306,0.576,0.53,0.948,0.71
			c-1.72,2.696-2.03,3.838-3.008,5.444c-0.99,1.626-2.01,3.268-2.906,3.996c-0.898,0.728-1.756,1.368-2.076,1.734l-0.776,0.884
			c-0.736-0.012-1.404,0.092-1.932,0.18c-0.932,0.154-2.18,0.968-2.8,1.696c-0.622,0.726-0.502,1.548-0.502,1.548
			s0.184-0.374,0.486-0.58c0.502-0.34,1.214-0.254,1.57-0.198c0.354,0.054,0.702,0.448,0.836,0.828
			c0.132,0.382-0.012,1.048-0.012,1.048s0.496-0.194,0.642-0.38c0.148-0.186,0.462-0.652,0.57-1.32
			c0.106-0.668,0.41-1.304,0.736-1.63c0.322-0.326,0.932-0.562,1.428-0.712c0.818-0.202,1.668-0.414,1.988-0.504
			c0.688-0.192,3.504-1.718,4.784-2.798l0.276-0.23l0.544,0.252c0,0,0.23-0.184,0.298-0.47c0.044-0.176,0.32-0.626,0.518-0.946
			c0.858-0.772,1.776-1.696,2.734-2.958C17.7633,63.332,18.1433,62.796,18.5213,62.228z"/>
	</g>
</g>
</svg>
